<?xml version="1.0" encoding="utf-8"?>
<!-- Generator: Adobe Illustrator 18.1.1, SVG Export Plug-In . SVG Version: 6.00 Build 0)  -->
<svg version="1.1" id="_x31_" xmlns="http://www.w3.org/2000/svg" xmlns:xlink="http://www.w3.org/1999/xlink" x="0px" y="0px"
	 viewBox="0 0 282.2 93.4" enable-background="new 0 0 282.2 93.4" xml:space="preserve">
<path fill-rule="evenodd" clip-rule="evenodd" fill="#1F252E" d="M161.1,61.8l4.4-10.8h25.1l4.4,10.8h8.6l-21.1-50h-8.9l-21.2,50
	H161.1L161.1,61.8z M177.2,22.5c0.3-0.8,0.6-1.6,0.9-2.8c0.4,1.2,0.6,2,0.9,2.8l8.8,21.4h-19.4L177.2,22.5L177.2,22.5z M199.3,11.8
	h41.3v7.5h-16.5v42.5h-8.2V19.3h-16.6V11.8L199.3,11.8z M247.7,11.8v50h8.2V41.5h26.4v-7.6h-26.4V19.3h26.4v-7.5H247.7z"/>
<path fill-rule="evenodd" clip-rule="evenodd" fill="#1F252E" d="M2.7,69.3h1.5v-0.6c0-0.8,0.7-1.5,1.5-1.5c0.8,0,1.5,0.7,1.5,1.5
	v0.6c1,0.1,1.9,0.5,2.6,1.2l0.1,0.1c0.7,0.7,1.1,1.7,1.1,2.8c0,1-0.4,1.9-0.9,2.6c0.6,0.7,0.9,1.6,0.9,2.6c0,1.1-0.5,2.1-1.2,2.9
	c-0.7,0.7-1.6,1.1-2.6,1.2v0.6c0,0.8-0.7,1.5-1.5,1.5c-0.8,0-1.5-0.7-1.5-1.5v-0.6H2.7c-0.8,0-1.5-0.7-1.5-1.5V76v-5.2
	C1.2,70,1.9,69.3,2.7,69.3L2.7,69.3z M35.4,77.4H15.8c-0.8,0-1.5-0.7-1.5-1.5c0-0.8,0.7-1.5,1.5-1.5h17.6c-0.6-1.4-1-3-1-4.6
	c0-0.6,0-1.2,0.1-1.8l0-0.2c-2.3-0.7-4.3-2-5.8-3.8c-1.8-2.1-2.9-4.9-2.9-7.9c0-1.7,0.3-3.3,1-4.8c0.5-1.1,1.1-2.2,1.9-3.1l0-0.1
	H15.8c-0.8,0-1.5-0.7-1.5-1.5c0-0.8,0.7-1.5,1.5-1.5h9.5c-0.4-1.3-0.6-2.6-0.6-4c0-3.7,1.5-7,3.9-9.4l0.1-0.1
	c-0.2-0.5-0.3-1-0.4-1.4c-0.2-0.9-0.3-1.7-0.3-2.7c0-2.4,0.8-4.7,2.1-6.6c0.5-0.7,1.1-1.4,1.8-2H16c-0.8,0-1.5-0.7-1.5-1.5
	c0-0.8,0.7-1.5,1.5-1.5h18.6c0.2-2.9,1.4-5.5,3.3-7.4l0,0c1.8-1.8,4.3-3,7-3.3c1-1.5,2.3-2.7,3.8-3.6c1.7-1,3.7-1.6,5.8-1.6
	c3.2,0,6,1.3,8.1,3.4l0.1,0.1c2,2.1,3.3,4.9,3.3,8l0,0v15.1v26.4v6.7v22.1l0,0c0,3.2-1.3,6-3.4,8.1c-2.1,2.1-4.9,3.4-8.1,3.4
	c-3.2,0-6-1.3-8.1-3.4c-2.1-2.1-3.4-4.9-3.4-8.1c0-0.2,0-0.4,0-0.7c-2.8-0.2-5.4-1.4-7.3-3.3C35.7,77.7,35.5,77.6,35.4,77.4
	L35.4,77.4z M28.9,45.9c0,0.1,0.1,0.1,0.1,0.2c0.2,0.5,0.5,0.9,0.8,1.3c0.5,0.6,0.5,1.5-0.1,2c-0.9,0.8-1.6,1.9-2.1,3
	c-0.5,1.1-0.7,2.3-0.7,3.6c0,2.3,0.8,4.4,2.2,6c1.4,1.6,3.3,2.8,5.4,3.1c0.1,0,0.2,0,0.3,0.1c0.8,0.2,1.2,1.1,1,1.9
	c-0.1,0.4-0.2,0.8-0.3,1.3c-0.1,0.4-0.1,0.9-0.1,1.4c0,2.3,1,4.5,2.5,6v0c1.5,1.5,3.7,2.5,6,2.5h0l0.1,0l0,0c2.3,0,4.4-1,5.9-2.5
	c1.5-1.5,2.5-3.7,2.5-6c0-0.8,0.7-1.5,1.5-1.5c0.8,0,1.5,0.7,1.5,1.5c0,3.2-1.3,6-3.4,8.1c-1.6,1.6-3.6,2.7-5.9,3.2
	c0,0.3,0,0.5,0,0.8c0,2.3,1,4.5,2.5,6v0c1.5,1.5,3.7,2.5,6,2.5c2.3,0,4.5-1,6-2.5c1.5-1.5,2.5-3.6,2.5-6l0,0V61.3h-9.2
	c-2.4,0-4.5,0.9-6,2.5l0,0c-1.5,1.5-2.5,3.7-2.5,6c0,0.8-0.7,1.5-1.5,1.5s-1.5-0.7-1.5-1.5c0-3.2,1.3-6,3.4-8.1l0,0
	c2.1-2.1,4.9-3.4,8.1-3.4h9.2v-3.7H50c-3.7,0-7-1.5-9.4-3.9c-2.4-2.4-3.9-5.8-3.9-9.4c0-0.8,0.7-1.5,1.5-1.5c0.8,0,1.5,0.7,1.5,1.5
	c0,2.9,1.2,5.5,3,7.3c1.9,1.9,4.5,3,7.3,3h13.1V28.1H57c-3.1,0-6-1.3-8-3.3l-0.1-0.1c-2.1-2.1-3.4-4.9-3.4-8.1
	c0-0.8,0.7-1.5,1.5-1.5c0.8,0,1.5,0.7,1.5,1.5c0,2.3,1,4.5,2.5,6l0.1,0.1c1.5,1.5,3.6,2.4,5.9,2.4h6.2V11.5l0,0
	c0-2.3-0.9-4.4-2.4-5.9l-0.1-0.1C59.1,3.9,57,3,54.6,3c-1.6,0-3.1,0.4-4.3,1.2c-0.6,0.4-1.2,0.8-1.7,1.3c2.2,0.5,4.1,1.6,5.6,3.1
	l0.1,0.1c2,2.1,3.3,4.9,3.3,8c0,0.8-0.7,1.5-1.5,1.5c-0.8,0-1.5-0.7-1.5-1.5c0-2.3-0.9-4.4-2.4-5.9l-0.1-0.1c-1.5-1.5-3.7-2.5-6-2.5
	l-0.1,0c-0.1,0-0.2,0-0.3,0c-2.2,0.1-4.2,1-5.7,2.5l0,0c-1.5,1.5-2.5,3.7-2.5,6c0,2.3,1,4.5,2.5,6v0c1.5,1.5,3.7,2.5,6,2.5
	c0.8,0,1.5,0.7,1.5,1.5c0,0.8-0.7,1.5-1.5,1.5c-3.2,0-6-1.3-8.1-3.4c-1.3-1.3-2.2-2.8-2.8-4.5c-1,0.6-1.9,1.4-2.6,2.4
	c-1,1.4-1.5,3-1.5,4.9c0,0.7,0.1,1.3,0.2,2l0.1,0.2c2-1.2,4.3-1.9,6.8-1.9c3.7,0,7,1.5,9.4,3.9c2.4,2.4,3.9,5.8,3.9,9.4
	c0,0.8-0.7,1.5-1.5,1.5c-0.8,0-1.5-0.7-1.5-1.5c0-2.9-1.2-5.5-3-7.3c-1.9-1.9-4.5-3-7.3-3c-2.5,0-4.7,0.8-6.5,2.3
	c-0.1,0.1-0.1,0.1-0.2,0.2c-0.2,0.2-0.4,0.4-0.6,0.6c-1.9,1.9-3,4.5-3,7.3c0,1.2,0.2,2.3,0.5,3.3C28.4,45,28.6,45.5,28.9,45.9
	L28.9,45.9z M39.6,59.2c-0.3,0.2-0.7,0.4-1.1,0.5c-0.4,0.1-0.8,0.2-1.2,0.2c-1.1,0-2-0.4-2.7-1.1l-0.1-0.1c-0.7-0.7-1.1-1.6-1.1-2.7
	c0-0.6,0.2-1.2,0.4-1.8c0.3-0.5,0.7-1,1.2-1.4c0.7-0.5,0.8-1.4,0.3-2.1c-0.5-0.7-1.4-0.8-2.1-0.3c-0.9,0.6-1.6,1.5-2.1,2.4
	c-0.5,0.9-0.8,2-0.8,3.1c0,1.8,0.7,3.5,1.9,4.7l0.1,0.1c1.2,1.2,2.9,2,4.8,2c0.7,0,1.4-0.1,2.1-0.3c0.7-0.2,1.3-0.5,1.9-1
	c0.7-0.5,0.8-1.4,0.3-2.1C41.2,58.9,40.2,58.8,39.6,59.2L39.6,59.2z M58.4,81.9c0,1.1-0.4,2-1.1,2.7c-0.7,0.7-1.7,1.1-2.7,1.1
	c-0.8,0-1.5-0.2-2.1-0.6c-0.6-0.4-1.1-1-1.4-1.7c-0.3-0.8-1.2-1.1-2-0.8c-0.7,0.3-1.1,1.2-0.8,2c0.5,1.2,1.4,2.2,2.5,3
	c1.1,0.7,2.3,1.1,3.7,1.1c1.9,0,3.6-0.8,4.8-2c1.2-1.2,2-2.9,2-4.8c0-0.8-0.7-1.5-1.5-1.5S58.4,81.1,58.4,81.9L58.4,81.9z
	 M53.7,32.6c0.7,1.3,1.3,2.7,1.7,4.2c0.4,1.4,0.6,2.9,0.6,4.5c0,1-0.1,1.9-0.2,2.8c-0.1,0.9-0.4,1.8-0.6,2.7c-0.2,0.8,0.2,1.6,1,1.9
	c0.8,0.2,1.6-0.2,1.9-1c0.3-1,0.6-2.1,0.7-3.1c0.2-1.1,0.3-2.2,0.3-3.2c0-1.8-0.2-3.5-0.7-5.2c-0.4-1.7-1.1-3.4-1.9-4.9
	c-0.4-0.7-1.3-1-2-0.6C53.6,31,53.3,31.9,53.7,32.6L53.7,32.6z M7.5,24.8c0,0.8-0.7,1.5-1.5,1.5c-0.8,0-1.5-0.7-1.5-1.5V24
	c-0.4-0.1-0.8-0.2-1.2-0.4l0,0c-0.9-0.4-1.6-1-2-1.7c-0.4-0.7-0.3-1.6,0.4-2c0.7-0.4,1.6-0.3,2,0.4c0.1,0.2,0.4,0.4,0.8,0.6
	c0.4,0.2,0.9,0.3,1.5,0.3c0.7,0,1.4-0.2,1.8-0.5c0.3-0.2,0.5-0.4,0.5-0.6c0-0.7-1.3-0.9-2.5-1.1c-2.5-0.4-5-0.8-5-4.1
	c0-1.2,0.7-2.3,1.8-3.1c0.6-0.4,1.3-0.7,2-0.9v-0.8c0-0.8,0.7-1.5,1.5-1.5c0.8,0,1.5,0.7,1.5,1.5V11c0.4,0.1,0.8,0.2,1.1,0.4
	c0.9,0.4,1.6,0.9,2,1.6c0.5,0.7,0.3,1.6-0.4,2.1c-0.7,0.5-1.6,0.3-2.1-0.4c-0.2-0.2-0.4-0.4-0.8-0.6c-0.4-0.2-0.9-0.3-1.4-0.3
	c-0.7,0-1.4,0.2-1.8,0.5c-0.3,0.2-0.5,0.4-0.5,0.6c0,0.7,1.3,0.9,2.5,1.1c2.5,0.4,5,0.8,5,4.1c0,1.2-0.7,2.3-1.8,3.1
	c-0.6,0.4-1.3,0.7-2,0.9V24.8L7.5,24.8z M8.9,49c0.8,0,1.5,0.7,1.5,1.5S9.7,52,8.9,52H5.5v0.6c0,0.8-0.7,1.5-1.5,1.5
	c-0.8,0-1.5-0.7-1.5-1.5V52h-1C0.7,52,0,51.3,0,50.5S0.7,49,1.5,49h1v-2.3v-5.9c0-0.8,0.7-1.5,1.5-1.5h3.7c1.2,0,2.3,0.5,3.1,1.3h0
	c0.8,0.8,1.3,1.9,1.3,3.1c0,1.2-0.5,2.3-1.3,3.1c-0.8,0.8-1.9,1.3-3.1,1.3H5.5V49H8.9L8.9,49z M7.7,42.3H5.5v2.9h2.2
	c0.4,0,0.8-0.2,1-0.4c0.3-0.3,0.4-0.6,0.4-1c0-0.4-0.2-0.8-0.4-1C8.5,42.5,8.1,42.3,7.7,42.3L7.7,42.3z M6.8,77.5H4.2v2.2h1.5h1.2
	c0.3,0,0.6-0.1,0.8-0.3c0.2-0.2,0.3-0.5,0.3-0.8c0-0.3-0.1-0.5-0.3-0.7l0,0C7.4,77.6,7.1,77.5,6.8,77.5L6.8,77.5z M6.8,72.3H5.6H4.2
	v2.2h2.6c0.3,0,0.6-0.1,0.8-0.3l0,0c0.2-0.2,0.3-0.5,0.3-0.8c0-0.3-0.1-0.5-0.3-0.7l0,0C7.4,72.4,7.1,72.3,6.8,72.3z"/>
<path fill-rule="evenodd" clip-rule="evenodd" fill="#C86164" d="M75.7,81.9L75.7,81.9c0,2.4,1,4.5,2.5,6l0.1,0.1
	c1.5,1.5,3.6,2.4,5.9,2.4c2.3,0,4.5-1,6-2.5c1.5-1.5,2.5-3.7,2.5-6c0-0.3,0-0.6,0-0.8c-2.3-0.4-4.3-1.5-5.9-3.1l-0.1-0.1
	c-2.1-2.1-3.4-4.9-3.4-8.1c0-0.8,0.7-1.5,1.5-1.5c0.8,0,1.5,0.7,1.5,1.5c0,2.3,1,4.5,2.5,6l0.1,0.1c1.5,1.5,3.5,2.4,5.8,2.4l0,0
	l0.1,0h0c2.3,0,4.5-1,6-2.5c1.5-1.5,2.5-3.7,2.5-6c0-0.5,0-0.9-0.1-1.4c-0.1-0.4-0.2-0.9-0.3-1.3c-0.2-0.8,0.2-1.6,1-1.9
	c0.1,0,0.2-0.1,0.3-0.1c2.2-0.4,4.1-1.5,5.4-3.1c1.4-1.6,2.2-3.7,2.2-6c0-1.3-0.3-2.5-0.7-3.6c-0.5-1.1-1.2-2.2-2.1-3
	c-0.6-0.5-0.6-1.4-0.1-2c0.3-0.4,0.6-0.9,0.8-1.3c0-0.1,0.1-0.1,0.1-0.2c0.2-0.4,0.4-0.9,0.6-1.4c0.3-1,0.5-2.1,0.5-3.3
	c0-2.9-1.2-5.5-3-7.3c-0.2-0.2-0.4-0.4-0.6-0.6c-0.1-0.1-0.2-0.1-0.2-0.2c-1.8-1.4-4-2.3-6.5-2.3c-2.9,0-5.5,1.2-7.3,3
	c-1.9,1.9-3,4.5-3,7.3c0,0.8-0.7,1.5-1.5,1.5c-0.8,0-1.5-0.7-1.5-1.5c0-3.7,1.5-7,3.9-9.4c2.4-2.4,5.8-3.9,9.4-3.9
	c2.5,0,4.8,0.7,6.8,1.9l0.1-0.2c0.2-0.6,0.2-1.3,0.2-2c0-1.8-0.6-3.5-1.5-4.9c-0.7-1-1.6-1.8-2.6-2.4c-0.6,1.7-1.5,3.3-2.8,4.5
	c-2.1,2.1-4.9,3.4-8.1,3.4c-0.8,0-1.5-0.7-1.5-1.5c0-0.8,0.7-1.5,1.5-1.5c2.3,0,4.5-1,6-2.5c1.5-1.5,2.5-3.7,2.5-6
	c0-2.4-0.9-4.5-2.5-6h0c-1.5-1.5-3.5-2.4-5.7-2.5c-0.1,0-0.2,0-0.3,0l-0.1,0c-2.4,0-4.5,0.9-6,2.5l0,0c-1.5,1.5-2.5,3.7-2.5,6
	c0,0.8-0.7,1.5-1.5,1.5c-0.8,0-1.5-0.7-1.5-1.5c0-3.2,1.3-6,3.4-8.1l0,0c1.5-1.5,3.4-2.6,5.6-3.1c-0.5-0.5-1.1-0.9-1.7-1.3
	C87.3,3.4,85.8,3,84.2,3c-2.4,0-4.5,0.9-6,2.5l0,0c-1.5,1.5-2.5,3.6-2.5,6l0,0v13.7h6.2c2.3,0,4.5-1,6-2.5c1.5-1.5,2.5-3.7,2.5-6
	c0-0.8,0.7-1.5,1.5-1.5s1.5,0.7,1.5,1.5c0,3.2-1.3,6-3.4,8.1c-2.1,2.1-4.9,3.4-8.1,3.4h-6.2v23.5h13.1c2.9,0,5.5-1.2,7.3-3
	c1.9-1.9,3-4.5,3-7.3c0-0.8,0.7-1.5,1.5-1.5c0.8,0,1.5,0.7,1.5,1.5c0,3.7-1.5,7-3.9,9.4c-2.4,2.4-5.8,3.9-9.4,3.9H75.7v3.7H85
	c3.2,0,6,1.3,8.1,3.4c2.1,2.1,3.4,5,3.4,8.1c0,0.8-0.7,1.5-1.5,1.5s-1.5-0.7-1.5-1.5c0-2.4-0.9-4.5-2.5-6h0c-1.5-1.5-3.7-2.5-6-2.5
	h-9.2V81.9L75.7,81.9z M134.7,87.4c0,0.8-0.7,1.5-1.5,1.5c-0.8,0-1.5-0.7-1.5-1.5v-1.8h-3.2c-0.8,0-1.5-0.7-1.5-1.5v-8.2v0v-8.2
	c0-0.8,0.7-1.5,1.5-1.5h3.2v-1.8c0-0.8,0.7-1.5,1.5-1.5c0.8,0,1.5,0.7,1.5,1.5v1.8h0.4c1.5,0,2.9,0.6,4,1.6c1,1,1.6,2.4,1.6,4
	c0,1.5-0.6,2.9-1.6,4c-0.1,0.1-0.1,0.1-0.2,0.2c0.1,0.1,0.1,0.1,0.2,0.2l0,0c1,1,1.6,2.4,1.6,3.9c0,1.5-0.6,2.9-1.6,4l-0.1,0.1
	c-1,1-2.4,1.6-3.9,1.6h-0.4V87.4L134.7,87.4z M130,74.4h5.1v0h0h0c0.7,0,1.3-0.3,1.8-0.8c0.5-0.5,0.8-1.1,0.8-1.9
	c0-0.7-0.3-1.4-0.8-1.9c-0.5-0.5-1.1-0.8-1.9-0.8h-1.9H130V74.4L130,74.4z M130,77.4v5.2h3.2h1.9c0.7,0,1.3-0.3,1.8-0.7l0.1-0.1
	c0.5-0.5,0.8-1.1,0.8-1.9c0-0.7-0.3-1.4-0.8-1.9l0,0c-0.5-0.5-1.1-0.8-1.8-0.8h0h0v0H130L130,77.4z M138.4,51.2
	c0.8,0,1.5,0.7,1.5,1.5c0,0.8-0.7,1.5-1.5,1.5h-6.3V56c0,0.8-0.7,1.5-1.5,1.5c-0.8,0-1.5-0.7-1.5-1.5v-1.8h-2.5
	c-0.8,0-1.5-0.7-1.5-1.5c0-0.8,0.7-1.5,1.5-1.5h2.5v-4.5v-9.3c0-0.8,0.7-1.5,1.5-1.5h5.9c1.7,0,3.2,0.7,4.3,1.8l0.1,0.1
	c1.1,1.1,1.7,2.6,1.7,4.2c0,1.7-0.7,3.2-1.8,4.3c-1.1,1.1-2.6,1.8-4.3,1.8h-4.4v3H138.4L138.4,51.2z M136.5,38.9h-4.4v6.3h4.4
	c0.9,0,1.7-0.4,2.2-0.9c0.6-0.6,0.9-1.4,0.9-2.2c0-0.8-0.3-1.6-0.9-2.2l-0.1-0.1C138.1,39.3,137.3,38.9,136.5,38.9L136.5,38.9z
	 M135.4,29c0,0.8-0.7,1.5-1.5,1.5c-0.8,0-1.5-0.7-1.5-1.5v-1.9c-0.8-0.1-1.6-0.4-2.4-0.7c-1.2-0.5-2.2-1.4-2.9-2.3
	c-0.4-0.7-0.3-1.6,0.4-2c0.7-0.4,1.6-0.3,2,0.4c0.3,0.5,0.9,0.9,1.6,1.2c0.7,0.3,1.7,0.5,2.7,0.5c1.4,0,2.6-0.4,3.4-0.9
	c0.7-0.5,1.1-1.1,1.1-1.7c0-1.9-2.4-2.3-4.7-2.6c-3.6-0.6-7.2-1.2-7.2-5.6c0-1.7,0.9-3.1,2.4-4.1c1-0.7,2.2-1.2,3.6-1.4V6
	c0-0.8,0.7-1.5,1.5-1.5c0.8,0,1.5,0.7,1.5,1.5v1.9c0.8,0.1,1.6,0.3,2.3,0.6c1.2,0.5,2.2,1.3,2.8,2.2c0.5,0.7,0.3,1.6-0.4,2.1
	c-0.7,0.5-1.6,0.3-2.1-0.4c-0.3-0.5-0.9-0.9-1.6-1.2c-0.7-0.3-1.6-0.5-2.6-0.5c-1.4,0-2.6,0.4-3.4,0.9c-0.7,0.5-1.1,1.1-1.1,1.7
	c0,1.9,2.4,2.3,4.7,2.6c3.6,0.6,7.2,1.2,7.2,5.6c0,1.7-0.9,3.1-2.4,4.1c-1,0.7-2.2,1.2-3.6,1.4V29L135.4,29z M105.4,74.4H123
	c0.8,0,1.5,0.7,1.5,1.5c0,0.8-0.7,1.5-1.5,1.5h-19.5c-0.2,0.2-0.3,0.3-0.5,0.5c-1.9,1.9-4.5,3.1-7.3,3.3c0,0.2,0,0.5,0,0.7
	c0,3.2-1.3,6-3.4,8.1c-2.1,2.1-4.9,3.4-8.1,3.4c-3.1,0-6-1.3-8-3.3L76.1,90c-2.1-2.1-3.4-4.9-3.4-8.1l0,0V59.8v-6.7V26.7V11.5l0,0
	c0-3.2,1.3-6,3.4-8.1l0,0C78.2,1.3,81,0,84.2,0c2.1,0,4.1,0.6,5.8,1.6c1.5,0.9,2.8,2.2,3.8,3.6c2.7,0.3,5.2,1.5,7,3.3
	c1.9,1.9,3.2,4.6,3.3,7.4h18.6c0.8,0,1.5,0.7,1.5,1.5c0,0.8-0.7,1.5-1.5,1.5h-15.9c0.7,0.6,1.3,1.3,1.8,2c1.3,1.9,2.1,4.1,2.1,6.6
	c0,0.9-0.1,1.8-0.3,2.7c-0.1,0.5-0.3,1-0.4,1.4l0.1,0.1c2.4,2.4,3.9,5.8,3.9,9.4c0,1.4-0.2,2.7-0.6,4h9.5c0.8,0,1.5,0.7,1.5,1.5
	c0,0.8-0.7,1.5-1.5,1.5h-10.9l0,0.1c0.8,0.9,1.4,2,1.9,3.1c0.6,1.5,1,3.1,1,4.8c0,3-1.1,5.8-2.9,7.9c-1.5,1.8-3.5,3.1-5.8,3.8l0,0.2
	c0.1,0.6,0.1,1.2,0.1,1.8C106.3,71.4,106,73,105.4,74.4L105.4,74.4z M97.5,61.6c-0.7-0.5-0.8-1.4-0.3-2.1c0.5-0.7,1.4-0.8,2.1-0.3
	c0.3,0.2,0.7,0.4,1.1,0.5c0.4,0.1,0.8,0.2,1.2,0.2c1.1,0,2-0.4,2.7-1.1c0.7-0.7,1.1-1.7,1.1-2.7c0-0.6-0.2-1.2-0.4-1.8
	c-0.3-0.5-0.7-1-1.2-1.4c-0.7-0.5-0.8-1.4-0.3-2.1c0.5-0.7,1.4-0.8,2.1-0.3c0.9,0.6,1.6,1.5,2.1,2.4c0.5,0.9,0.8,2,0.8,3.1
	c0,1.9-0.8,3.6-2,4.8c-1.2,1.2-2.9,2-4.8,2c-0.7,0-1.4-0.1-2.1-0.3C98.7,62.4,98.1,62.1,97.5,61.6L97.5,61.6z M77.4,81.9
	c0-0.8,0.7-1.5,1.5-1.5s1.5,0.7,1.5,1.5c0,1.1,0.4,2,1.1,2.7l0.1,0.1c0.7,0.7,1.6,1.1,2.6,1.1c0.8,0,1.5-0.2,2.1-0.6
	c0.6-0.4,1.1-1,1.4-1.7c0.3-0.8,1.2-1.1,2-0.8c0.7,0.3,1.1,1.2,0.8,2c-0.5,1.2-1.4,2.2-2.5,3c-1.1,0.7-2.3,1.1-3.7,1.1
	c-1.8,0-3.5-0.7-4.7-1.9l-0.1-0.1C78.2,85.5,77.4,83.8,77.4,81.9L77.4,81.9z M82.5,31.1c0.4-0.7,1.3-1,2-0.6c0.7,0.4,1,1.3,0.6,2
	c-0.7,1.3-1.3,2.7-1.7,4.2c-0.4,1.4-0.6,2.9-0.6,4.5c0,1,0.1,1.9,0.2,2.8c0.1,0.9,0.4,1.8,0.6,2.7c0.2,0.8-0.2,1.6-1,1.9
	c-0.8,0.2-1.6-0.2-1.9-1c-0.3-1-0.6-2.1-0.7-3.1c-0.2-1.1-0.3-2.2-0.3-3.2c0-1.8,0.2-3.5,0.7-5.2C81,34.3,81.6,32.7,82.5,31.1z"/>
<path fill-rule="evenodd" clip-rule="evenodd" fill="#1F252E" d="M153.6,80.6l1.5-3.3h6.9l1.4,3.3h1.1l-5.4-12.1h-1.2l-5.4,12.1
	H153.6L153.6,80.6z M158.3,69.8c0.1-0.1,0.1-0.3,0.2-0.4c0.1,0.1,0.1,0.2,0.2,0.4l2.9,6.5h-6L158.3,69.8z"/>
<rect x="166.1" y="67.9" fill-rule="evenodd" clip-rule="evenodd" fill="#1F252E" width="1" height="12.7"/>
<path fill-rule="evenodd" clip-rule="evenodd" fill="#1F252E" d="M169.3,76.4c0,2.6,1.8,4.4,4.1,4.4c1.7,0,2.8-0.9,3.5-1.8v1.6
	c0,2.3-1.7,3.1-3.6,3.1c-1.1,0-2.2-0.3-3.2-0.8v1c1,0.5,2.1,0.8,3.3,0.8c2.3,0,4.5-1.2,4.5-4v-8.3H177v1.7c-0.7-1.1-1.9-1.9-3.6-1.9
	C171,72,169.3,73.8,169.3,76.4L169.3,76.4z M176.9,75.3v2.4c-0.5,1.2-1.7,2.2-3.3,2.2c-1.8,0-3.3-1.3-3.3-3.5c0-2.2,1.4-3.5,3.3-3.5
	C175.1,72.9,176.4,74,176.9,75.3z"/>
<path fill-rule="evenodd" clip-rule="evenodd" fill="#1F252E" d="M180,76.4c0,2.8,2.1,4.4,4.4,4.4c2.3,0,4.4-1.5,4.4-4.4
	c0-2.8-2.1-4.4-4.4-4.4C182.1,72,180,73.6,180,76.4L180,76.4z M187.8,76.4c0,2.2-1.5,3.4-3.4,3.4c-1.9,0-3.4-1.2-3.4-3.4
	c0-2.2,1.5-3.4,3.4-3.4C186.2,73,187.8,74.2,187.8,76.4z"/>
<polygon fill-rule="evenodd" clip-rule="evenodd" fill="#1F252E" points="187.7,68.4 187.7,69.4 192.2,69.4 192.2,80.6 193.2,80.6 
	193.2,69.4 197.7,69.4 197.7,68.4 "/>
<path fill-rule="evenodd" clip-rule="evenodd" fill="#1F252E" d="M198.1,74.2v-1.9h-0.9v8.3h1v-5.1c0.4-1.4,1.8-2.6,3.6-2.4v-1
	C200.1,72,198.7,72.9,198.1,74.2z"/>
<path fill-rule="evenodd" clip-rule="evenodd" fill="#1F252E" d="M209.8,79v-3.6c0-2.2-1.3-3.5-3.5-3.5c-1.4,0-2.4,0.3-3.1,0.5v1
	c0.7-0.3,1.7-0.6,3-0.6c1.7,0,2.7,1,2.7,2.4v0.6c-0.8-0.2-1.7-0.4-2.6-0.4c-1.8,0-3.7,0.7-3.7,2.7c0,1.7,1.4,2.5,2.9,2.5
	c1.4,0,2.6-0.5,3.4-1.4c0.1,0.9,0.7,1.3,1.4,1.3c0.3,0,0.6-0.1,0.9-0.2v-0.8c-0.2,0.1-0.4,0.1-0.6,0.1
	C210.1,79.8,209.8,79.6,209.8,79L209.8,79z M203.5,78.2c0-1.4,1.4-1.8,2.8-1.8c0.8,0,1.8,0.2,2.5,0.3v1.5c-0.7,1.1-2,1.6-3.2,1.6
	C204.5,79.9,203.5,79.4,203.5,78.2z"/>
<path fill-rule="evenodd" clip-rule="evenodd" fill="#1F252E" d="M219.7,68.4v5.4c-0.6-1-1.8-1.8-3.5-1.8c-2.4,0-4.1,1.8-4.1,4.4
	c0,2.6,1.8,4.4,4.1,4.4c1.7,0,2.8-0.9,3.6-1.9v1.7h0.9V68.4H219.7L219.7,68.4z M219.7,75.3v2.3c-0.5,1.2-1.7,2.3-3.3,2.3
	c-1.8,0-3.3-1.3-3.3-3.5c0-2.2,1.4-3.5,3.3-3.5C218,72.9,219.2,74,219.7,75.3z"/>
<path fill-rule="evenodd" clip-rule="evenodd" fill="#1F252E" d="M224.4,80.6v-8.3h-1v8.3H224.4L224.4,80.6z M224.6,69.7
	c0-0.4-0.3-0.7-0.7-0.7c-0.4,0-0.7,0.2-0.7,0.7c0,0.5,0.3,0.7,0.7,0.7C224.3,70.3,224.6,70.1,224.6,69.7z"/>
<path fill-rule="evenodd" clip-rule="evenodd" fill="#1F252E" d="M228.1,73.7v-1.5h-0.9v8.3h1v-5.7c0.6-0.9,1.6-1.9,3-1.9
	c1.4,0,2.5,0.9,2.5,2.6v5h1v-5.1c0-2.1-1.5-3.4-3.4-3.4C229.8,72,228.6,72.9,228.1,73.7z"/>
<path fill-rule="evenodd" clip-rule="evenodd" fill="#1F252E" d="M236.7,76.4c0,2.6,1.8,4.4,4.1,4.4c1.7,0,2.8-0.9,3.5-1.8v1.6
	c0,2.3-1.7,3.1-3.6,3.1c-1.1,0-2.2-0.3-3.2-0.8v1c1,0.5,2.1,0.8,3.3,0.8c2.3,0,4.5-1.2,4.5-4v-8.3h-0.9v1.7
	c-0.7-1.1-1.9-1.9-3.6-1.9C238.5,72,236.7,73.8,236.7,76.4L236.7,76.4z M244.3,75.3v2.4c-0.5,1.2-1.7,2.2-3.3,2.2
	c-1.8,0-3.3-1.3-3.3-3.5c0-2.2,1.4-3.5,3.3-3.5C242.6,72.9,243.8,74,244.3,75.3z"/>
<polygon fill-rule="evenodd" clip-rule="evenodd" fill="#C86164" points="247.8,68.4 247.8,80.6 251,80.6 251,76.2 256.1,76.2 
	256.1,73.4 251,73.4 251,71.3 256.6,71.3 256.6,68.4 "/>
<path fill-rule="evenodd" clip-rule="evenodd" fill="#C86164" d="M265.9,68.4v7.3c0,1.6-0.9,2.2-2.3,2.2c-1.4,0-2.3-0.6-2.3-2.2
	v-7.3h-3.2v7.5c0,3.7,2.8,4.9,5.5,4.9c2.7,0,5.5-1.2,5.5-4.9v-7.5H265.9z"/>
<path fill-rule="evenodd" clip-rule="evenodd" fill="#C86164" d="M274.5,80.6v-5c0-0.7,0-1.4-0.1-2l4.8,7h3V68.4H279v5
	c0,0.7,0,1.4,0.1,2l-4.8-7h-3v12.1H274.5z"/>
</svg>
