<?xml version="1.0" encoding="utf-8"?>
<!-- Generator: Adobe Illustrator 18.1.1, SVG Export Plug-In . SVG Version: 6.00 Build 0)  -->
<svg version="1.1" id="Layer_1" xmlns="http://www.w3.org/2000/svg" xmlns:xlink="http://www.w3.org/1999/xlink" x="0px" y="0px"
	 viewBox="0 0 98.7 88.6" enable-background="new 0 0 98.7 88.6" xml:space="preserve">
<g>
	<defs>
		<rect id="SVGID_1_" width="98.7" height="88.6"/>
	</defs>
	<clipPath id="SVGID_2_">
		<use xlink:href="#SVGID_1_"  overflow="visible"/>
	</clipPath>
	<path clip-path="url(#SVGID_2_)" fill="#003366" stroke="#FFFFFF" stroke-miterlimit="10" d="M31.5,74.6l-4-5
		c-13.9-17.2-13.9-17.3-14-17.5c-2.9-4.2-2-10,2-13.3c4.1-3.3,10.1-2.8,13.6,1.1c0.1,0.1,4.6,5.7,9,11.2c4.4,5.4,8.7,10.8,8.9,11
		L42.3,66c0,0-4.5-5.6-8.9-11.1c-4.4-5.4-8.7-10.8-8.9-11c-1.3-1.4-3.6-1.6-5.2-0.3c-1.6,1.3-1.9,3.5-0.8,5.2
		c0.3,0.4,8.6,10.7,13.7,17c2.3,2.9,4,5,4.1,5L31.5,74.6z"/>
	<path clip-path="url(#SVGID_2_)" fill="#003366" stroke="#FFFFFF" stroke-miterlimit="10" d="M28.5,48.9
		c-0.3-0.4-26.6-33-26.7-33.2c-3-4.3-2.1-10.2,1.9-13.4c4.1-3.3,10.1-2.8,13.6,1.1c0.2,0.2,17.8,22,17.9,22.2l-4.8,3.8
		C30.2,29,13.2,7.9,12.7,7.3c-1.3-1.4-3.6-1.6-5.2-0.3c-1.6,1.3-1.9,3.5-0.8,5.2c0.4,0.5,26,32.4,26.4,32.9L28.5,48.9z"/>
	<path clip-path="url(#SVGID_2_)" fill="#003366" stroke="#FFFFFF" stroke-miterlimit="10" d="M48.6,30c-0.1-0.1-10.7-13.4-11-13.7
		c-2.9-4.2-2.1-10.1,2-13.3C43.7-0.4,49.7,0.1,53.3,4c0.1,0.1,0.1,0.1,9.9,12.3l4.7,5.9l-4.7,3.9c0,0-2.2-2.7-4.8-6
		C54.3,15,48.9,8.3,48.7,8c-1.3-1.4-3.6-1.6-5.2-0.3c-1.6,1.3-1.9,3.5-0.8,5.2c0.4,0.5,10.4,12.9,10.7,13.3L48.6,30z"/>
	<path clip-path="url(#SVGID_2_)" fill="#003366" stroke="#FFFFFF" stroke-miterlimit="10" d="M37.9,38.6
		c-0.1-0.2-17.9-22.2-18-22.4C17,11.9,17.8,6,21.8,2.8C26-0.5,32,0,35.5,3.9C35.6,4.1,53.3,26,53.4,26.2l-4.8,3.7
		c-0.3-0.4-17.2-21.4-17.7-22c-1.3-1.4-3.6-1.6-5.2-0.3c-1.6,1.3-1.9,3.5-0.8,5.2c0.4,0.5,17.3,21.6,17.7,22L37.9,38.6z"/>
	<path clip-path="url(#SVGID_2_)" fill="#003366" stroke="#FFFFFF" stroke-miterlimit="10" d="M60.9,88.6c-1.4,0-2.7-0.1-4.1-0.2
		c-10-1.1-19-6-25.3-13.8l4.7-3.8c5.3,6.6,12.8,10.7,21.2,11.6c8.4,0.9,16.6-1.5,23.2-6.8c11.7-9.4,15.4-25.8,8.7-39
		c-1.9-2.4-17.1-21.2-17.5-21.8c-1.3-1.4-3.6-1.6-5.2-0.3c-1.6,1.3-1.9,3.5-0.8,5.2c0.9,1.3,0.6,3.2-0.7,4.2
		c-1.8,1.3-3.2,0.4-4.3-0.7l0,0c0,0-0.1-0.1-0.1-0.1c-0.3-0.4-0.6-0.7-0.9-1.1l0.2-0.2c-1.9-4.1-0.9-9.1,2.8-12
		c4.1-3.3,10.1-2.8,13.6,1.1c0.1,0.1,0.1,0.1,17.9,22.2c0.1,0.2,0.2,0.3,0.3,0.5c8.2,15.8,3.9,35.5-10.2,46.8
		C77.6,85.7,69.4,88.6,60.9,88.6"/>
</g>
</svg>
