<?xml version="1.0" encoding="UTF-8"?>
<svg enable-background="new 0 180 612 612" version="1.1" viewBox="0 180 612 612" xml:space="preserve" xmlns="http://www.w3.org/2000/svg">
<g fill="#fff">
	<path d="M306,180C137.3,180,0,317.3,0,486s137.3,306,306,306s306-137.3,306-306S474.7,180,306,180z M306,769.3   C149.8,769.3,22.7,642.2,22.7,486S149.8,202.7,306,202.7S589.3,329.8,589.3,486S462.2,769.3,306,769.3z"/>
	<path d="m367.3 342c-4.4-4.4-11.6-4.4-16 0l-130.3 130.3c-7.6 7.6-7.6 19.8 0 27.4l130.3 130.3c2.2 2.2 5.1 3.3 8 3.3s5.8-1.1 8-3.3c4.4-4.4 4.4-11.6 0-16l-128-128 128-128c4.5-4.4 4.5-11.6 0-16z"/>
</g>
</svg>
