<?xml version="1.0" encoding="UTF-8"?>
<svg enable-background="new 0 180 612 612" version="1.1" viewBox="0 180 612 612" xml:space="preserve" xmlns="http://www.w3.org/2000/svg">
<g fill="#fff">
	<path d="M306,180C137.3,180,0,317.3,0,486s137.3,306,306,306s306-137.3,306-306S474.7,180,306,180z M306,769.3   C149.8,769.3,22.7,642.2,22.7,486S149.8,202.7,306,202.7S589.3,329.8,589.3,486S462.2,769.3,306,769.3z"/>
	<path d="M260.7,342c-4.4-4.4-11.6-4.4-16,0s-4.4,11.6,0,16l128,128l-128,128c-4.4,4.4-4.4,11.6,0,16   c2.2,2.2,5.1,3.3,8,3.3s5.8-1.1,8-3.3L391,499.7c7.6-7.6,7.6-19.8,0-27.4L260.7,342z"/>
</g>
</svg>
