<!-- Generated by IcoMoon.io -->
<svg version="1.1" xmlns="http://www.w3.org/2000/svg" width="32" height="32" viewBox="0 0 32 32">
<title>accounting</title>
<path d="M31.467 10.667h-16c-0.319 0-0.533 0.214-0.533 0.533v20.267c0 0.319 0.214 0.533 0.533 0.533h16c0.319 0 0.533-0.214 0.533-0.533v-20.267c0-0.319-0.214-0.533-0.533-0.533zM30.933 11.733v3.2h-14.933c0-0.319 0-0.852 0-1.067h6.4v-1.067h-6.4c0-0.105 0-1.067 0-1.067h14.933zM16 30.933c0 0 0-9.762 0-14.933h14.933v14.933h-14.933z"></path>
<path d="M18.667 17.067h1.6v1.067h-1.6v-1.067z"></path>
<path d="M21.333 17.067h1.6v1.067h-1.6v-1.067z"></path>
<path d="M24 17.067h1.6v1.067h-1.6v-1.067z"></path>
<path d="M26.667 17.067h1.6v1.067h-1.6v-1.067z"></path>
<path d="M17.6 19.733h2.133v1.067h-2.133v-1.067z"></path>
<path d="M20.8 19.733h2.133v1.067h-2.133v-1.067z"></path>
<path d="M24 19.733h2.133v1.067h-2.133v-1.067z"></path>
<path d="M27.2 19.733h2.133v1.067h-2.133v-1.067z"></path>
<path d="M17.6 21.867h2.133v1.067h-2.133v-1.067z"></path>
<path d="M20.8 21.867h2.133v1.067h-2.133v-1.067z"></path>
<path d="M24 21.867h2.133v1.067h-2.133v-1.067z"></path>
<path d="M27.2 21.867h2.133v1.067h-2.133v-1.067z"></path>
<path d="M17.6 24h2.133v1.067h-2.133v-1.067z"></path>
<path d="M20.8 24h2.133v1.067h-2.133v-1.067z"></path>
<path d="M24 24h2.133v1.067h-2.133v-1.067z"></path>
<path d="M27.2 24h2.133v1.067h-2.133v-1.067z"></path>
<path d="M17.6 26.133h2.133v1.067h-2.133v-1.067z"></path>
<path d="M20.8 26.133h2.133v1.067h-2.133v-1.067z"></path>
<path d="M24 26.133h2.133v1.067h-2.133v-1.067z"></path>
<path d="M27.2 26.133h2.133v1.067h-2.133v-1.067z"></path>
<path d="M17.6 28.267h2.133v1.067h-2.133v-1.067z"></path>
<path d="M20.8 28.267h2.133v1.067h-2.133v-1.067z"></path>
<path d="M24 28.267h2.133v1.067h-2.133v-1.067z"></path>
<path d="M27.2 28.267h2.133v1.067h-2.133v-1.067z"></path>
<path d="M1.067 7.467h5.867c0.319 0 0.533-0.214 0.533-0.533v-5.867h18.133v7.467h1.067v-8c0-0.319-0.214-0.533-0.533-0.533h-19.2c-0.052 0-0.105 0-0.162 0.052h-0.052c-0.052 0.052-0.105 0.052-0.162 0.105l-6.395 6.405c-0.052 0.052-0.052 0.105-0.105 0.162v0.052c0 0.052-0.052 0.105-0.052 0.162v0 5.867h1.067c-0.005-0.005-0.005-4.753-0.005-5.339zM6.4 6.4h-4.586l4.591-4.591v4.591h-0.005z"></path>
<path d="M13.333 22.933h-5.867v-7.467c0-0.319-0.214-0.533-0.533-0.533h-6.4c-0.319 0-0.533 0.214-0.533 0.533v16c0 0.319 0.214 0.533 0.533 0.533h12.8c0.319 0 0.533-0.214 0.533-0.533v-8c0-0.319-0.214-0.533-0.533-0.533zM1.067 24h5.333v1.6h-5.333v-1.6zM6.4 22.933h-5.333v-1.6h5.333v1.6zM6.4 20.267h-5.333v-1.6h5.333v1.6zM1.067 26.667h5.333v1.6h-5.333v-1.6zM7.467 26.667h5.333v1.6h-5.333v-1.6zM12.8 25.6h-5.333v-1.6h5.333v1.6zM1.067 16h5.333v1.6h-5.333v-1.6zM1.067 29.333h5.333v1.6h-5.333v-1.6zM12.8 30.933h-5.333v-1.6h5.333v1.6z"></path>
<path d="M20.267 2.667h3.733v1.067h-3.733v-1.067z"></path>
<path d="M14.4 5.333h9.6v1.067h-9.6v-1.067z"></path>
<path d="M23.467 12.8h1.6v1.067h-1.6v-1.067z"></path>
</svg>
