<!-- Generated by IcoMoon.io -->
<svg version="1.1" xmlns="http://www.w3.org/2000/svg" width="32" height="32" viewBox="0 0 32 32">
<title>analytics</title>
<path d="M0 26.322c0 1.422 1.156 2.583 2.583 2.583h6.708v2.065h-2.065v1.030h14.452v-1.030h-2.065v-2.065h6.709c1.422 0 2.583-1.156 2.583-2.583v-1.548h-28.905v1.548zM18.583 30.97h-8.261v-2.065h8.256v2.065zM1.030 25.804h26.839v0.518c0 0.852-0.695 1.548-1.548 1.548h-23.739c-0.852 0-1.548-0.695-1.548-1.548v-0.518z"></path>
<path d="M1.030 8.774c0-0.852 0.695-1.548 1.548-1.548h14.97v-1.030h-14.965c-1.427 0-2.583 1.156-2.583 2.578v14.97h1.030v-14.97z"></path>
<path d="M27.869 20.643h1.030v3.095h-1.030v-3.095z"></path>
<path d="M18.583 18.065c0 0.852 0.695 1.548 1.548 1.548h10.322c0.852 0 1.548-0.695 1.548-1.548v-2.583h-13.417v2.583zM19.613 16.518h11.357v1.548c0 0.282-0.23 0.518-0.518 0.518h-10.322c-0.282 0-0.518-0.23-0.518-0.518v-1.548z"></path>
<path d="M21.678 5.678v2.578h-1.035v1.035h9.291v-1.035h-1.030v-3.613h-1.035v3.613h-1.030v-4.643h-1.035v4.643h-1.030v-3.613h-1.030v3.613h-1.035v-2.578z"></path>
<path d="M30.452 0h-10.322c-0.852 0-1.548 0.695-1.548 1.548v7.744h-3.273l-2.672 2.076c-1.082-1.318-2.661-2.076-4.376-2.076-3.132 0-5.678 2.546-5.678 5.678s2.546 5.678 5.678 5.678 5.678-2.546 5.678-5.678c0-0.58-0.089-1.156-0.261-1.705l-0.983 0.309c0.141 0.45 0.214 0.92 0.214 1.396 0 0.858-0.241 1.663-0.648 2.353l-3.535-2.651-0.967-4.319c0.162-0.016 0.329-0.026 0.497-0.026 1.396 0 2.677 0.612 3.566 1.678l-1.302 1.009 0.633 0.816 4.507-3.503h2.918v4.131h1.030v-12.91c0-0.282 0.23-0.518 0.518-0.518h10.322c0.282 0 0.518 0.23 0.518 0.518v12.905h1.035v-12.905c0-0.852-0.695-1.548-1.548-1.548zM3.613 14.97c0-2.034 1.318-3.765 3.142-4.392l0.957 4.314-2.144 3.859c-1.182-0.847-1.956-2.222-1.956-3.78zM8.424 15.733l3.216 2.41c-0.847 0.899-2.044 1.464-3.378 1.464-0.633 0-1.239-0.131-1.788-0.361l1.95-3.514z"></path>
<path d="M20.643 10.322h1.030v1.030h-1.030v-1.030z"></path>
<path d="M28.905 10.322h1.030v1.030h-1.030v-1.030z"></path>
<path d="M22.709 10.322h5.161v1.030h-5.161v-1.030z"></path>
<path d="M2.065 22.709h24.774v1.030h-24.774v-1.030z"></path>
</svg>
