<!-- Generated by IcoMoon.io -->
<svg version="1.1" xmlns="http://www.w3.org/2000/svg" width="32" height="32" viewBox="0 0 32 32">
<title>analytics2</title>
<path d="M30.787 1.124h-29.574c-0.669 0-1.213 0.544-1.213 1.213v22.416c0 0.669 0.544 1.213 1.213 1.213h11.153v3.906h-4.816c-0.282 0-0.512 0.23-0.512 0.512s0.23 0.512 0.512 0.512h16.899c0.282 0 0.512-0.23 0.512-0.512s-0.23-0.512-0.512-0.512h-4.816v-3.906h11.153c0.669 0 1.213-0.544 1.213-1.213v-22.416c0-0.669-0.544-1.213-1.213-1.213zM18.609 29.877h-5.224v-3.906h5.224v3.906zM30.98 24.753c0 0.105-0.089 0.193-0.193 0.193h-29.574c-0.105 0-0.193-0.089-0.193-0.193v-22.416c0-0.105 0.089-0.193 0.193-0.193h29.569c0.105 0 0.193 0.089 0.193 0.193v22.416z"></path>
<path d="M29.375 20.79h-26.75c-0.282 0-0.512 0.23-0.512 0.512s0.23 0.512 0.512 0.512h26.756c0.282 0 0.512-0.23 0.512-0.512s-0.235-0.512-0.518-0.512z"></path>
<path d="M7.488 19.090h2.724c0.282 0 0.512-0.23 0.512-0.512v-7.409c0-0.282-0.23-0.512-0.512-0.512h-2.724c-0.282 0-0.512 0.23-0.512 0.512v7.409c0.005 0.282 0.23 0.512 0.512 0.512zM8 11.681h1.705v6.384h-1.705v-6.384z"></path>
<path d="M12.256 19.090h2.724c0.282 0 0.512-0.23 0.512-0.512v-9.825c0-0.282-0.23-0.512-0.512-0.512h-2.724c-0.282 0-0.512 0.23-0.512 0.512v9.825c0 0.282 0.23 0.512 0.512 0.512zM12.763 9.265h1.705v8.805h-1.705v-8.805z"></path>
<path d="M17.020 19.090h2.724c0.282 0 0.512-0.23 0.512-0.512v-12.105c0-0.282-0.23-0.512-0.512-0.512h-2.724c-0.282 0-0.512 0.23-0.512 0.512v12.11c0.005 0.277 0.23 0.507 0.512 0.507zM17.532 6.98h1.705v11.085h-1.705v-11.085z"></path>
<path d="M21.788 19.090h2.724c0.282 0 0.512-0.23 0.512-0.512v-5.056c0-0.282-0.23-0.512-0.512-0.512h-2.724c-0.282 0-0.512 0.23-0.512 0.512v5.056c0 0.282 0.23 0.512 0.512 0.512zM22.295 14.034h1.705v4.037h-1.705v-4.037z"></path>
</svg>
