<!-- Generated by IcoMoon.io -->
<svg version="1.1" xmlns="http://www.w3.org/2000/svg" width="21" height="32" viewBox="0 0 21 32">
<title>auto-flash</title>
<path d="M18.667 0c-1.469 0-2.667 1.197-2.667 2.667v6.003c0 0.366 0.298 0.669 0.669 0.669s0.669-0.298 0.669-0.669v-2.003h2.667v2.003c0 0.366 0.298 0.669 0.669 0.669 0.366 0 0.669-0.298 0.669-0.669v-6.003c-0.010-1.469-1.208-2.667-2.677-2.667zM20 5.333h-2.667v-2.667c0-0.737 0.596-1.333 1.333-1.333s1.333 0.596 1.333 1.333v2.667z"></path>
<path d="M20.664 12h-7.331v-11.331c0-0.298-0.193-0.554-0.481-0.638s-0.591 0.031-0.748 0.277l-12 18.667c-0.131 0.204-0.141 0.465-0.026 0.68s0.34 0.345 0.586 0.345h7.336v11.336c0 0.298 0.193 0.554 0.481 0.638 0.063 0.016 0.126 0.026 0.188 0.026 0.225 0 0.434-0.11 0.559-0.308l12-18.667c0.131-0.204 0.141-0.465 0.026-0.68-0.12-0.209-0.345-0.345-0.591-0.345zM9.333 29.061v-9.726c0-0.366-0.298-0.664-0.669-0.664h-6.776l10.112-15.728v9.731c0 0.366 0.298 0.664 0.669 0.664h6.776l-10.112 15.723z"></path>
</svg>
