<!-- Generated by IcoMoon.io -->
<svg version="1.1" xmlns="http://www.w3.org/2000/svg" width="32" height="32" viewBox="0 0 32 32">
<title>auto-repair-service</title>
<path d="M11.441 25.401c-3.587-1.741-5.903-5.438-5.903-9.422 0-3.524 1.757-6.792 4.701-8.737 0.371-0.246 0.476-0.748 0.23-1.119s-0.748-0.476-1.119-0.23c-0.167 0.11-0.329 0.225-0.486 0.34l-1.595-1.339c-0.92-0.774-2.295-0.654-3.069 0.267l-0.905 1.082c-0.371 0.444-0.549 1.009-0.502 1.59 0.052 0.58 0.324 1.103 0.769 1.48l1.595 1.339c-0.382 0.779-0.68 1.605-0.889 2.458h-2.091c-1.203 0-2.175 0.978-2.175 2.175v1.412c0 1.203 0.978 2.175 2.175 2.175h2.097c0.209 0.842 0.507 1.663 0.894 2.447l-1.605 1.349c-0.444 0.371-0.716 0.899-0.769 1.48s0.126 1.145 0.502 1.59l0.905 1.082c0.429 0.512 1.046 0.774 1.668 0.774 0.492 0 0.988-0.167 1.396-0.507l1.616-1.354c0.58 0.424 1.203 0.8 1.861 1.119 0.403 0.193 0.884 0.026 1.077-0.371 0.188-0.403 0.021-0.884-0.376-1.077zM2.175 17.265c-0.314 0-0.565-0.251-0.565-0.565v-1.412c0-0.314 0.251-0.565 0.565-0.565h1.809c-0.042 0.413-0.063 0.831-0.063 1.255 0 0.434 0.021 0.863 0.068 1.286h-1.814zM4.596 8.084c-0.115-0.094-0.183-0.23-0.199-0.382s0.031-0.298 0.131-0.413l0.905-1.082c0.11-0.131 0.272-0.204 0.434-0.204 0.131 0 0.256 0.042 0.361 0.131l1.375 1.156c-0.617 0.591-1.161 1.244-1.631 1.945l-1.375-1.15zM6.227 25.851c-0.241 0.199-0.596 0.167-0.795-0.068l-0.905-1.082c-0.094-0.115-0.141-0.261-0.131-0.413 0.016-0.152 0.084-0.288 0.199-0.382l1.396-1.171c0.476 0.706 1.025 1.359 1.637 1.945l-1.401 1.171zM29.825 13.114h-2.086c-0.209-0.852-0.507-1.678-0.889-2.458l1.595-1.339c0.92-0.774 1.041-2.149 0.267-3.069l-0.91-1.077c-0.774-0.92-2.149-1.041-3.069-0.267l-1.595 1.339c-0.209-0.152-0.429-0.303-0.648-0.444-0.376-0.241-0.873-0.131-1.114 0.246s-0.131 0.873 0.246 1.114c3.027 1.935 4.837 5.234 4.837 8.826 0 4.068-2.384 7.796-6.076 9.506-0.403 0.188-0.58 0.664-0.392 1.072 0.188 0.403 0.664 0.58 1.072 0.392 0.732-0.34 1.417-0.748 2.055-1.213l1.616 1.354c0.392 0.329 0.884 0.507 1.396 0.507 0.063 0 0.131-0.005 0.193-0.010 0.58-0.052 1.103-0.324 1.48-0.769l0.905-1.082c0.774-0.92 0.654-2.295-0.267-3.069l-1.616-1.354c0.382-0.774 0.685-1.595 0.894-2.442h2.102c1.203 0 2.175-0.978 2.175-2.175v-1.412c0.005-1.197-0.973-2.175-2.17-2.175zM27.404 23.906c0.241 0.199 0.272 0.559 0.068 0.795l-0.905 1.082c-0.094 0.115-0.23 0.183-0.382 0.199s-0.298-0.031-0.413-0.131l-1.401-1.176c0.612-0.591 1.161-1.244 1.631-1.945l1.401 1.176zM26.029 9.239c-0.471-0.701-1.020-1.354-1.631-1.945l1.375-1.156c0.241-0.199 0.596-0.167 0.795 0.068l0.905 1.082c0.199 0.241 0.167 0.596-0.068 0.795l-1.375 1.156zM30.39 16.701c0 0.314-0.251 0.565-0.565 0.565h-1.814c0.047-0.424 0.068-0.852 0.068-1.286 0-0.424-0.021-0.842-0.063-1.255h1.809c0.314 0 0.565 0.251 0.565 0.565v1.412zM21.427 15.979c0-1.888-0.957-3.613-2.567-4.612-0.376-0.235-0.491-0.732-0.261-1.108 0.235-0.376 0.732-0.497 1.108-0.261 2.086 1.297 3.326 3.529 3.326 5.982 0 1.668-0.591 3.284-1.668 4.549-0.157 0.188-0.387 0.282-0.617 0.282-0.183 0-0.371-0.063-0.523-0.193-0.34-0.288-0.382-0.795-0.094-1.135 0.842-0.973 1.297-2.217 1.297-3.503zM11.948 19.592c0.298 0.335 0.267 0.842-0.063 1.14-0.152 0.136-0.345 0.204-0.539 0.204-0.22 0-0.444-0.089-0.601-0.267-1.15-1.291-1.788-2.954-1.788-4.685 0-2.604 1.427-4.988 3.728-6.212 0.392-0.209 0.884-0.063 1.093 0.329s0.063 0.884-0.329 1.093c-1.773 0.946-2.876 2.782-2.876 4.79 0 1.328 0.492 2.614 1.375 3.608zM16.795 18.573c0.010-0.047 0.016-0.099 0.016-0.146v-9.982l2.923-1.689c0.251-0.146 0.403-0.408 0.403-0.701v-3.843c0-0.288-0.152-0.554-0.403-0.701l-1.663-0.962c-0.387-0.225-0.878-0.089-1.103 0.293-0.225 0.387-0.089 0.878 0.293 1.103l1.26 0.727v2.918l-2.52 1.454-2.52-1.454v-2.912l1.26-0.727c0.387-0.225 0.518-0.716 0.293-1.103s-0.716-0.518-1.103-0.293l-1.663 0.962c-0.251 0.146-0.403 0.408-0.403 0.701v3.843c0 0.288 0.152 0.554 0.403 0.701l2.923 1.689v9.982c0 0.052 0.005 0.099 0.016 0.146-1.093 0.34-1.888 1.359-1.888 2.557v8.544c0 1.030 0.837 1.867 1.867 1.867h1.621c1.030 0 1.867-0.837 1.867-1.867v-8.544c0.005-1.203-0.79-2.222-1.877-2.562zM17.067 29.678c0 0.136-0.115 0.256-0.256 0.256h-1.621c-0.136 0-0.256-0.115-0.256-0.256v-8.544c0-0.586 0.476-1.067 1.067-1.067 0.586 0 1.067 0.476 1.067 1.067v8.544z"></path>
</svg>
