<!-- Generated by IcoMoon.io -->
<svg version="1.1" xmlns="http://www.w3.org/2000/svg" width="32" height="32" viewBox="0 0 32 32">
<title>avatar</title>
<path d="M15.884 17.242c0.033 0 0.066 0 0.106 0 0.013 0 0.027 0 0.040 0 0.020 0 0.046 0 0.066 0 1.942-0.033 3.512-0.716 4.672-2.021 2.551-2.876 2.127-7.806 2.081-8.277-0.166-3.532-1.836-5.222-3.214-6.010-1.027-0.59-2.227-0.908-3.565-0.934h-0.046c-0.007 0-0.020 0-0.027 0h-0.040c-0.736 0-2.18 0.119-3.565 0.908-1.392 0.789-3.088 2.478-3.254 6.037-0.046 0.471-0.47 5.401 2.081 8.277 1.153 1.305 2.724 1.988 4.665 2.021zM10.907 7.11c0-0.020 0.007-0.040 0.007-0.053 0.219-4.751 3.592-5.262 5.036-5.262h0.027c0.013 0 0.033 0 0.053 0 1.789 0.040 4.831 0.769 5.036 5.262 0 0.020 0 0.040 0.007 0.053 0.007 0.046 0.471 4.552-1.637 6.925-0.835 0.941-1.948 1.405-3.413 1.418-0.013 0-0.020 0-0.033 0v0c-0.013 0-0.020 0-0.033 0-1.458-0.013-2.578-0.477-3.406-1.418-2.101-2.359-1.65-6.885-1.643-6.925z"></path>
<path d="M29.608 25.42c0-0.007 0-0.013 0-0.020 0-0.053-0.007-0.106-0.007-0.166-0.040-1.312-0.126-4.38-3.002-5.361-0.020-0.007-0.046-0.013-0.066-0.020-2.989-0.762-5.474-2.485-5.5-2.505-0.404-0.285-0.961-0.186-1.246 0.219s-0.186 0.961 0.219 1.246c0.113 0.080 2.75 1.915 6.050 2.763 1.544 0.55 1.716 2.2 1.763 3.711 0 0.060 0 0.113 0.007 0.166 0.007 0.596-0.033 1.517-0.139 2.048-1.073 0.61-5.281 2.717-11.683 2.717-6.375 0-10.609-2.114-11.689-2.724-0.106-0.53-0.152-1.451-0.139-2.048 0-0.053 0.007-0.106 0.007-0.166 0.046-1.511 0.219-3.161 1.763-3.711 3.3-0.848 5.937-2.69 6.050-2.763 0.404-0.285 0.504-0.842 0.219-1.246s-0.842-0.504-1.246-0.219c-0.027 0.020-2.498 1.743-5.5 2.505-0.027 0.007-0.046 0.013-0.066 0.020-2.876 0.987-2.962 4.056-3.002 5.361 0 0.060 0 0.113-0.007 0.166 0 0.007 0 0.013 0 0.020-0.007 0.345-0.013 2.114 0.338 3.002 0.066 0.172 0.186 0.318 0.345 0.417 0.199 0.133 4.963 3.168 12.935 3.168s12.736-3.042 12.935-3.168c0.152-0.099 0.278-0.245 0.345-0.417 0.331-0.881 0.325-2.651 0.318-2.995z"></path>
</svg>
