<!-- Generated by IcoMoon.io -->
<svg version="1.1" xmlns="http://www.w3.org/2000/svg" width="32" height="32" viewBox="0 0 32 32">
<title>bars</title>
<path d="M23.744 0.523v1.030h1.851l-10.63 10.63-5.156-5.166-6.557 6.557 0.722 0.732 5.835-5.83 5.156 5.161 11.362-11.352v1.846h1.030v-3.608z"></path>
<path d="M30.965 30.458v0-22.709h-5.161v22.709h-1.035v-19.608h-5.161v19.618h-1.035v-12.392h-5.166v12.382h-1.035v-15.488h-5.161v15.482h-1.035v-7.221h-5.14v7.226h-1.035v1.035h32v-1.035h-1.035zM5.166 30.458h-3.101v-6.196h3.101v6.196zM11.357 30.458h-3.101v-14.452h3.101v14.452zM17.548 30.463h-3.101v-11.357h3.101v11.357zM23.744 30.463h-3.101v-18.583h3.101v18.583zM29.94 30.458h-3.101v-21.678h3.101v21.678z"></path>
</svg>
