<!-- Generated by IcoMoon.io -->
<svg version="1.1" xmlns="http://www.w3.org/2000/svg" width="32" height="32" viewBox="0 0 32 32">
<title>bars3</title>
<path d="M26.593 2.562c-2.447 0-4.376 1.961-4.376 4.408s1.961 4.376 4.376 4.376 4.408-1.961 4.408-4.408-1.961-4.376-4.408-4.376zM26.593 10.379c-1.903 0-3.441-1.537-3.441-3.441s1.569-3.409 3.441-3.409c1.903 0 3.441 1.537 3.441 3.441s-1.537 3.409-3.441 3.409z"></path>
<path d="M27.984 7.634c-0.031-0.089-0.031-0.152-0.089-0.241-0.031-0.063-0.063-0.152-0.12-0.209s-0.089-0.12-0.152-0.183c-0.063-0.063-0.12-0.12-0.209-0.152-0.063-0.063-0.152-0.089-0.209-0.12-0.089-0.031-0.152-0.089-0.241-0.12s-0.183-0.063-0.241-0.089c-0.031 0-0.089-0.031-0.12-0.063s-0.089-0.031-0.12-0.063c-0.031-0.031-0.089-0.031-0.12-0.063s-0.063-0.063-0.089-0.089c-0.031-0.031-0.063-0.063-0.063-0.12-0.031-0.031-0.031-0.089-0.031-0.12 0-0.063 0-0.089 0-0.152 0-0.031 0.031-0.089 0.031-0.12 0.031-0.031 0.031-0.089 0.063-0.12s0.063-0.063 0.089-0.089c0.031-0.031 0.089-0.063 0.152-0.063 0.063-0.031 0.089-0.031 0.152-0.031 0.031 0 0.063 0 0.089 0s0.063 0 0.089 0 0.089 0 0.152 0.031c0.063 0 0.12 0.031 0.152 0.031s0.089 0.031 0.12 0.031c0.063 0 0.089 0.031 0.12 0.031l0.152 0.063 0.031-0.183 0.063-0.481v-0.12l-0.12-0.031c-0.031 0-0.089-0.031-0.12-0.031s-0.063-0.031-0.12-0.031c-0.031 0-0.089-0.031-0.152-0.031s-0.089-0.031-0.152-0.031h-0.042v-0.575h-0.727v0.607h-0.031c-0.089 0.031-0.183 0.063-0.272 0.12-0.089 0.031-0.152 0.089-0.209 0.152s-0.12 0.12-0.183 0.209c-0.063 0.063-0.089 0.152-0.12 0.241s-0.063 0.183-0.089 0.272c-0.031 0.089-0.031 0.209-0.031 0.303s0 0.152 0.031 0.241 0.031 0.152 0.089 0.241c0.031 0.063 0.089 0.152 0.12 0.209 0.063 0.063 0.089 0.12 0.152 0.183s0.12 0.12 0.209 0.152c0.063 0.063 0.152 0.089 0.209 0.12 0.089 0.031 0.183 0.089 0.241 0.12 0.089 0.031 0.183 0.063 0.241 0.089 0.031 0 0.089 0.031 0.12 0.063s0.089 0.031 0.12 0.063c0.031 0.031 0.063 0.063 0.089 0.063 0.031 0.031 0.063 0.063 0.089 0.089 0.031 0.031 0.031 0.063 0.063 0.12 0 0.031 0.031 0.089 0.031 0.152s0 0.089 0 0.152c0 0.031-0.031 0.089-0.063 0.12s-0.063 0.063-0.089 0.089c-0.031 0.031-0.063 0.063-0.12 0.089-0.031 0.031-0.089 0.031-0.12 0.063-0.031 0-0.089 0.031-0.152 0.031-0.031 0-0.063 0-0.12 0-0.031 0-0.089 0-0.12 0-0.063 0-0.12 0-0.152 0-0.063 0-0.12-0.031-0.152-0.031-0.063 0-0.12-0.031-0.183-0.063s-0.12-0.031-0.183-0.063c-0.031 0-0.063-0.031-0.089-0.031-0.031 0-0.063-0.031-0.089-0.031l-0.183-0.089-0.031 0.209-0.063 0.544v0.089l0.089 0.031c0.12-0.031 0.183 0 0.272 0.031 0.063 0.031 0.152 0.063 0.209 0.063 0.063 0.031 0.152 0.031 0.241 0.063s0.152 0.031 0.241 0.031h0.063v0.607h0.727v-0.633h0.031c0.089-0.031 0.183-0.063 0.272-0.12 0.089-0.031 0.152-0.089 0.241-0.152 0.063-0.063 0.12-0.12 0.183-0.209 0.063-0.063 0.089-0.152 0.152-0.241 0.031-0.089 0.063-0.183 0.089-0.272 0.031-0.089 0.031-0.183 0.031-0.303 0.010-0.094 0.010-0.157-0.016-0.246z"></path>
<path d="M24.481 11.922c-0.152-0.209-0.481-0.241-0.695-0.089l-4.889 3.895-6.311-2.625c-0.152-0.063-0.335-0.031-0.455 0.063l-6.761 4.831c-0.209 0.152-0.272 0.455-0.12 0.664 0.089 0.152 0.241 0.209 0.392 0.209 0.089 0 0.183-0.031 0.272-0.089l6.552-4.68 6.337 2.625c0.152 0.063 0.361 0.031 0.481-0.063l5.103-4.047c0.214-0.152 0.246-0.486 0.094-0.695z"></path>
<path d="M31.545 28.46h-2.233v-13.976c0-0.272-0.209-0.481-0.481-0.481h-4.439c-0.272 0-0.481 0.209-0.481 0.481v13.976h-1.631v-9.145c0-0.272-0.209-0.481-0.481-0.481h-4.465c-0.272 0-0.481 0.209-0.481 0.481v9.145h-1.637v-9.872c0-0.272-0.209-0.481-0.481-0.481h-4.439c-0.272 0-0.481 0.209-0.481 0.481v9.872h-1.631v-7.033c0-0.272-0.209-0.481-0.481-0.481h-4.471c-0.272 0-0.481 0.209-0.481 0.481v7.033h-2.269c-0.272 0-0.481 0.209-0.481 0.481s0.209 0.481 0.481 0.481h31.038c0.272 0 0.481-0.209 0.481-0.481 0.026-0.267-0.183-0.481-0.455-0.481zM7.184 28.46h-3.472v-6.546h3.472v6.546zM14.248 28.46h-3.472v-9.386h3.472v9.386zM21.281 28.46h-3.472v-8.664h3.472v8.664zM28.345 28.46h-3.472v-13.49h3.472v13.49z"></path>
</svg>
