<!-- Generated by IcoMoon.io -->
<svg version="1.1" xmlns="http://www.w3.org/2000/svg" width="22" height="32" viewBox="0 0 22 32">
<title>calculator</title>
<path d="M21.26 0h-20.298c-0.533 0-0.962 0.434-0.962 0.962v30.071c0 0.533 0.434 0.962 0.962 0.962h20.298c0.533 0 0.962-0.434 0.962-0.962v-30.071c0-0.528-0.429-0.962-0.962-0.962zM20.298 30.071h-18.374v-28.141h18.369v28.141z"></path>
<path d="M7.064 14.034h-1.26c-0.533 0-0.962 0.434-0.962 0.962s0.434 0.962 0.962 0.962h1.26c0.533 0 0.962-0.434 0.962-0.962s-0.434-0.962-0.962-0.962z"></path>
<path d="M10.374 15.963h1.26c0.533 0 0.962-0.434 0.962-0.962s-0.434-0.962-0.962-0.962h-1.26c-0.533 0-0.962 0.434-0.962 0.962s0.429 0.962 0.962 0.962z"></path>
<path d="M16.214 14.034h-1.26c-0.533 0-0.962 0.434-0.962 0.962s0.434 0.962 0.962 0.962h1.26c0.533 0 0.962-0.434 0.962-0.962s-0.434-0.962-0.962-0.962z"></path>
<path d="M7.064 17.192h-1.26c-0.533 0-0.962 0.434-0.962 0.962s0.434 0.962 0.962 0.962h1.26c0.533 0 0.962-0.434 0.962-0.962s-0.434-0.962-0.962-0.962z"></path>
<path d="M10.374 19.122h1.26c0.533 0 0.962-0.434 0.962-0.962s-0.434-0.962-0.962-0.962h-1.26c-0.533 0-0.962 0.434-0.962 0.962s0.429 0.962 0.962 0.962z"></path>
<path d="M16.214 17.192h-1.26c-0.533 0-0.962 0.434-0.962 0.962s0.434 0.962 0.962 0.962h1.26c0.533 0 0.962-0.434 0.962-0.962s-0.434-0.962-0.962-0.962z"></path>
<path d="M7.064 20.345h-1.26c-0.533 0-0.962 0.434-0.962 0.962s0.434 0.962 0.962 0.962h1.26c0.533 0 0.962-0.434 0.962-0.962s-0.434-0.962-0.962-0.962z"></path>
<path d="M10.374 22.274h1.26c0.533 0 0.962-0.434 0.962-0.962s-0.434-0.962-0.962-0.962h-1.26c-0.533 0-0.962 0.434-0.962 0.962s0.429 0.962 0.962 0.962z"></path>
<path d="M16.214 20.345h-1.26c-0.533 0-0.962 0.434-0.962 0.962s0.434 0.962 0.962 0.962h1.26c0.533 0 0.962-0.434 0.962-0.962s-0.434-0.962-0.962-0.962z"></path>
<path d="M7.064 23.503h-1.26c-0.533 0-0.962 0.434-0.962 0.962 0 0.533 0.434 0.962 0.962 0.962h1.26c0.533 0 0.962-0.434 0.962-0.962 0-0.533-0.434-0.962-0.962-0.962z"></path>
<path d="M16.214 23.503h-5.841c-0.533 0-0.962 0.434-0.962 0.962 0 0.533 0.434 0.962 0.962 0.962h5.835c0.533 0 0.962-0.434 0.962-0.962 0.005-0.533-0.429-0.962-0.957-0.962z"></path>
<path d="M5.276 8.601h10.939c0.533 0 0.962-0.434 0.962-0.962 0-0.533-0.434-0.962-0.962-0.962h-10.939c-0.533 0-0.962 0.434-0.962 0.962-0.005 0.533 0.429 0.962 0.962 0.962z"></path>
</svg>
