<!-- Generated by IcoMoon.io -->
<svg version="1.1" xmlns="http://www.w3.org/2000/svg" width="32" height="32" viewBox="0 0 32 32">
<title>cancel</title>
<path d="M15.997 31.994c8.811 0 15.997-7.157 15.997-15.997s-7.186-15.997-15.997-15.997-15.997 7.186-15.997 15.997 7.186 15.997 15.997 15.997zM15.997 2.258c7.575 0 13.739 6.17 13.739 13.739s-6.164 13.739-13.739 13.739-13.739-6.164-13.739-13.739 6.164-13.739 13.739-13.739z"></path>
<path d="M9.995 21.836c0.221 0.221 0.493 0.331 0.801 0.331 0.302 0 0.58-0.11 0.801-0.331l4.406-4.406 4.406 4.406c0.221 0.221 0.493 0.331 0.801 0.331s0.58-0.11 0.801-0.331c0.441-0.441 0.441-1.155 0-1.596l-4.406-4.406 4.406-4.406c0.441-0.441 0.441-1.155 0-1.596s-1.155-0.441-1.596 0l-4.417 4.4-4.406-4.406c-0.441-0.441-1.155-0.441-1.596 0s-0.441 1.155 0 1.596l4.406 4.406-4.406 4.406c-0.441 0.447-0.441 1.161 0 1.602z"></path>
</svg>
