<!-- Generated by IcoMoon.io -->
<svg version="1.1" xmlns="http://www.w3.org/2000/svg" width="32" height="32" viewBox="0 0 32 32">
<title>checked</title>
<path d="M16 0c-8.821 0-16 7.179-16 16s7.179 16 16 16 16-7.179 16-16-7.179-16-16-16zM16 30.4c-7.942 0-14.4-6.458-14.4-14.4s6.458-14.4 14.4-14.4 14.4 6.458 14.4 14.4-6.458 14.4-14.4 14.4z"></path>
<path d="M20.188 12.105l-6.133 6.102-2.238-2.254c-0.314-0.314-0.816-0.314-1.129-0.005s-0.314 0.816-0.005 1.129l2.797 2.818c0.157 0.157 0.361 0.235 0.57 0.235 0.204 0 0.403-0.078 0.559-0.235l6.703-6.661c0.314-0.314 0.314-0.816 0.005-1.129-0.314-0.314-0.816-0.314-1.129 0z"></path>
</svg>
