<!-- Generated by IcoMoon.io -->
<svg version="1.1" xmlns="http://www.w3.org/2000/svg" width="32" height="32" viewBox="0 0 32 32">
<title>cogwheel</title>
<path d="M31.373 19.995h-5.793c-0.162 0-0.308 0.063-0.418 0.162l-0.915-0.706c-0.319-0.246-0.575-0.565-0.748-0.92 0.272-0.554 0.491-1.124 0.664-1.71l2.881-0.46c0.303-0.047 0.528-0.308 0.528-0.617v-3.911c0-0.309-0.225-0.57-0.528-0.617l-2.881-0.46c-0.22-0.753-0.518-1.475-0.894-2.165l1.71-2.363c0.178-0.251 0.152-0.591-0.063-0.81l-2.766-2.766c-0.22-0.22-0.559-0.246-0.81-0.063l-2.358 1.715c-0.685-0.376-1.412-0.675-2.165-0.894l-0.46-2.881c-0.047-0.303-0.308-0.528-0.617-0.528h-3.911c-0.309 0-0.57 0.225-0.617 0.528l-0.46 2.881c-0.753 0.22-1.475 0.518-2.165 0.894l-2.363-1.71c-0.251-0.178-0.591-0.152-0.81 0.063l-2.766 2.766c-0.22 0.22-0.246 0.559-0.063 0.81l1.71 2.363c-0.376 0.685-0.675 1.412-0.894 2.165l-2.881 0.46c-0.293 0.042-0.518 0.303-0.518 0.607v3.911c0 0.308 0.225 0.57 0.528 0.617l2.881 0.46c0.22 0.753 0.518 1.474 0.894 2.165l-1.71 2.363c-0.178 0.251-0.152 0.591 0.063 0.81l2.766 2.766c0.22 0.22 0.559 0.246 0.81 0.063l2.363-1.71c0.685 0.376 1.412 0.674 2.165 0.894l0.35 2.201c-0.037 0.162-0.058 0.329-0.058 0.502 0 0.586 0.241 1.119 0.622 1.506-0.387 0.387-0.622 0.915-0.622 1.506 0 1.171 0.957 2.128 2.128 2.128h8.763c0.831 0 1.652-0.277 2.311-0.774l0.732-0.554c0.073 0.267 0.314 0.46 0.601 0.46h5.783c0.345 0 0.627-0.282 0.627-0.627v-9.893c0-0.345-0.282-0.627-0.627-0.627zM11.597 22.426c-0.005 0.010-0.016 0.016-0.021 0.026-0.016 0.016-0.031 0.031-0.042 0.052-0.010 0.010-0.016 0.021-0.026 0.031-0.010 0.016-0.026 0.031-0.037 0.047-0.010 0.010-0.016 0.026-0.026 0.037-0.010 0.016-0.021 0.031-0.031 0.047-0.010 0.010-0.016 0.026-0.026 0.037-0.010 0.016-0.021 0.031-0.031 0.047-0.010 0.010-0.016 0.026-0.021 0.037-0.010 0.016-0.021 0.031-0.026 0.047s-0.016 0.026-0.021 0.042c-0.010 0.016-0.016 0.031-0.026 0.047-0.005 0.016-0.016 0.026-0.021 0.042-0.005 0.010-0.010 0.021-0.016 0.031-0.826-0.23-1.616-0.57-2.353-1.009-0.214-0.131-0.486-0.115-0.69 0.031l-2.259 1.637-2.013-2.013 1.637-2.259c0.146-0.204 0.157-0.476 0.031-0.69-0.481-0.805-0.842-1.673-1.072-2.583-0.063-0.241-0.261-0.424-0.507-0.465l-2.75-0.439v-2.844l2.75-0.439c0.246-0.042 0.444-0.225 0.507-0.465 0.23-0.91 0.586-1.783 1.072-2.583 0.131-0.214 0.115-0.486-0.031-0.69l-1.637-2.259 2.013-2.013 2.259 1.637c0.204 0.146 0.476 0.157 0.69 0.031 0.805-0.481 1.673-0.842 2.583-1.072 0.241-0.063 0.424-0.261 0.465-0.507l0.439-2.75h2.844l0.439 2.75c0.042 0.246 0.225 0.444 0.465 0.507 0.91 0.23 1.783 0.586 2.583 1.072 0.214 0.131 0.486 0.115 0.69-0.031l2.259-1.637 2.013 2.013-1.637 2.259c-0.146 0.204-0.157 0.476-0.031 0.69 0.481 0.805 0.842 1.673 1.072 2.583 0.063 0.241 0.261 0.424 0.507 0.465l2.75 0.439v2.844l-2.75 0.439c-0.125 0.021-0.241 0.078-0.329 0.162v-2.186c0-0.675-0.356-1.265-0.884-1.6-0.345-1.678-1.166-3.205-2.384-4.424-3.409-3.409-8.962-3.409-12.376 0-1.359 1.359-2.217 3.085-2.478 4.983-0.256 1.835 0.089 3.744 0.967 5.365 0.115 0.209 0.329 0.329 0.549 0.329 0.099 0 0.204-0.026 0.298-0.073 0.303-0.162 0.418-0.544 0.251-0.847-1.569-2.892-1.035-6.541 1.297-8.873 2.923-2.923 7.681-2.923 10.609 0 0.915 0.915 1.569 2.034 1.914 3.263-0.010 0-0.026 0.005-0.037 0.005s-0.016 0-0.026 0.005c-0.392 0.052-0.763 0.183-1.093 0.376-0.288-1.046-0.842-2.013-1.616-2.787-1.187-1.187-2.766-1.841-4.444-1.841s-3.258 0.654-4.444 1.841c-2.452 2.452-2.452 6.437 0 8.889 0.607 0.607 1.318 1.077 2.097 1.386-0.005 0.010-0.010 0.021-0.021 0.026-0.016 0.026-0.037 0.052-0.052 0.078-0.010 0.021-0.026 0.037-0.037 0.058-0.016 0.026-0.031 0.058-0.047 0.089-0.005 0.016-0.016 0.026-0.021 0.042-0.021 0.042-0.037 0.078-0.058 0.12-0.005 0.010-0.005 0.021-0.010 0.031-0.016 0.037-0.031 0.078-0.042 0.115-0.005 0.010-0.005 0.016-0.010 0.026-0.016 0.047-0.026 0.089-0.037 0.136 0 0.010-0.005 0.021-0.005 0.026-0.010 0.042-0.021 0.089-0.026 0.136 0 0.005 0 0.010-0.005 0.016-0.005 0.047-0.016 0.099-0.016 0.146 0 0.010 0 0.021 0 0.031-0.005 0.052-0.005 0.099-0.005 0.152 0 0.586 0.241 1.119 0.622 1.506-0.021 0.021-0.047 0.047-0.068 0.073zM10.222 17.344c-1.961-1.961-1.961-5.156 0-7.122 1.961-1.961 5.156-1.961 7.122 0 0.795 0.795 1.297 1.835 1.438 2.944-0.277 0.455-0.434 0.988-0.434 1.558v1.192c-0.246 0.533-0.586 1.014-0.999 1.427-0.706 0.711-1.6 1.182-2.578 1.375h-1.595c-0.094 0-0.183 0.005-0.272 0.016-1.020-0.178-1.945-0.659-2.682-1.391zM18.342 18.107v0.612h-0.669c0.193-0.152 0.376-0.319 0.554-0.491 0.037-0.037 0.078-0.078 0.115-0.12zM24.957 29.124l-1.459 1.103c-0.444 0.34-0.999 0.523-1.558 0.523h-8.769c-0.486 0-0.878-0.392-0.878-0.878s0.392-0.878 0.878-0.878h1.427c0.345 0 0.627-0.282 0.627-0.627s-0.282-0.627-0.627-0.627h-1.422c0 0 0 0 0 0-0.486 0-0.878-0.392-0.878-0.878 0-0.12 0.026-0.235 0.068-0.34 0 0 0 0 0 0 0.010-0.026 0.021-0.052 0.037-0.073 0 0 0-0.005 0.005-0.005 0.010-0.021 0.026-0.047 0.042-0.068 0 0 0 0 0 0 0.11-0.162 0.272-0.288 0.465-0.345 0.005 0 0.005 0 0.010-0.005 0.021-0.005 0.042-0.010 0.068-0.016 0.005 0 0.016-0.005 0.021-0.005 0.021-0.005 0.042-0.005 0.058-0.010 0.005 0 0.016 0 0.021-0.005 0.026 0 0.052-0.005 0.084-0.005h1.427c0.345 0 0.627-0.282 0.627-0.627s-0.282-0.627-0.627-0.627h-1.427c-0.486 0-0.878-0.392-0.878-0.878s0.392-0.878 0.878-0.878c0 0 0 0 0 0h1.422c0.345 0 0.627-0.282 0.627-0.627s-0.282-0.627-0.627-0.627h-1.427c-0.481 0-0.878-0.397-0.878-0.878 0-0.026 0-0.058 0.005-0.084 0-0.010 0-0.021 0.005-0.026 0-0.021 0.005-0.037 0.010-0.052 0-0.010 0.005-0.021 0.005-0.031 0.005-0.016 0.010-0.031 0.010-0.047 0.005-0.010 0.005-0.021 0.010-0.031 0.005-0.016 0.010-0.031 0.016-0.047 0.005-0.010 0.005-0.016 0.010-0.026 0.010-0.016 0.016-0.037 0.026-0.052 0.005-0.005 0.005-0.010 0.010-0.021 0.010-0.021 0.026-0.042 0.037-0.063 0 0 0-0.005 0.005-0.005 0.063-0.094 0.141-0.173 0.235-0.235 0.005 0 0.005-0.005 0.010-0.005 0.021-0.010 0.037-0.026 0.058-0.037 0.005-0.005 0.010-0.005 0.016-0.010 0.016-0.010 0.037-0.016 0.052-0.026 0.010-0.005 0.016-0.005 0.026-0.010 0.016-0.005 0.031-0.010 0.047-0.016 0.010-0.005 0.021-0.005 0.031-0.010 0.016-0.005 0.026-0.005 0.042-0.010s0.026-0.005 0.042-0.010c0.052-0.010 0.11-0.016 0.167-0.016h5.799c0.345 0 0.627-0.282 0.627-0.627v-4.622c0-0.392 0.131-0.753 0.345-1.041 0.010-0.010 0.016-0.021 0.026-0.037 0.016-0.021 0.037-0.047 0.058-0.068 0.010-0.010 0.021-0.026 0.031-0.037s0.021-0.021 0.031-0.031c0.010-0.016 0.026-0.026 0.037-0.042 0.010-0.010 0.016-0.016 0.026-0.026 0.016-0.016 0.031-0.031 0.052-0.047 0.005-0.005 0.010-0.010 0.016-0.016 0.235-0.199 0.518-0.329 0.816-0.387 0 0 0.005 0 0.005 0 0.031-0.005 0.058-0.010 0.089-0.016 0.005 0 0.010 0 0.016 0 0.026-0.005 0.052-0.005 0.084-0.005 0.005 0 0.016 0 0.021 0 0.031 0 0.068-0.005 0.099-0.005 0.356 0 0.643 0.288 0.643 0.643v3.78c0 0.068 0 0.136 0.005 0.204 0 0.016 0 0.031 0.005 0.042 0.005 0.063 0.010 0.12 0.016 0.178 0 0.005 0 0.010 0 0.021 0.037 0.298 0.105 0.591 0.209 0.873 0.005 0.021 0.016 0.037 0.026 0.058 0.251 0.648 0.674 1.229 1.234 1.663l1.469 1.135v7.571zM30.75 29.882h-1.647v-4.863c0-0.345-0.282-0.627-0.627-0.627s-0.627 0.282-0.627 0.627v4.863h-1.647v-8.638h4.544v8.638z"></path>
<path d="M29.088 22.672c-0.010-0.042-0.021-0.078-0.037-0.115s-0.037-0.073-0.058-0.11c-0.021-0.037-0.047-0.068-0.078-0.094-0.026-0.026-0.063-0.058-0.094-0.078-0.037-0.021-0.073-0.042-0.11-0.058s-0.078-0.026-0.115-0.037c-0.078-0.016-0.162-0.016-0.246 0-0.042 0.010-0.078 0.021-0.115 0.037s-0.073 0.037-0.11 0.058c-0.031 0.021-0.068 0.047-0.094 0.078-0.031 0.026-0.052 0.063-0.078 0.094-0.021 0.031-0.042 0.068-0.058 0.11-0.016 0.037-0.026 0.078-0.037 0.115-0.010 0.042-0.010 0.084-0.010 0.12 0 0.042 0.005 0.084 0.010 0.12s0.021 0.078 0.037 0.115c0.016 0.037 0.037 0.073 0.058 0.11s0.047 0.068 0.078 0.094c0.031 0.026 0.063 0.058 0.094 0.078 0.037 0.021 0.073 0.042 0.11 0.058s0.078 0.026 0.115 0.037c0.042 0.010 0.084 0.010 0.12 0.010 0.042 0 0.084-0.005 0.12-0.010 0.042-0.010 0.078-0.021 0.115-0.037s0.073-0.037 0.11-0.058c0.031-0.021 0.068-0.047 0.094-0.078 0.026-0.026 0.058-0.063 0.078-0.094s0.042-0.068 0.058-0.11c0.016-0.037 0.026-0.078 0.037-0.115 0.010-0.042 0.010-0.084 0.010-0.12 0.010-0.037 0.005-0.078-0.005-0.12z"></path>
<path d="M8.424 19.027c-0.115-0.12-0.277-0.188-0.444-0.188-0.167-0.005-0.329 0.063-0.444 0.183-0.246 0.246-0.241 0.638 0 0.884 0.12 0.125 0.282 0.183 0.444 0.183 0.157 0 0.314-0.058 0.439-0.178 0.241-0.241 0.241-0.638 0.005-0.884z"></path>
<path d="M13.783 9.793c-2.201 0-3.99 1.788-3.99 3.99s1.788 3.99 3.99 3.99 3.99-1.788 3.99-3.99-1.788-3.99-3.99-3.99zM13.783 16.523c-1.511 0-2.74-1.229-2.74-2.74s1.229-2.74 2.74-2.74 2.74 1.229 2.74 2.74-1.229 2.74-2.74 2.74z"></path>
<path d="M14.667 13.783l0.361-0.361c0.246-0.246 0.246-0.638 0-0.884s-0.638-0.246-0.884 0l-0.361 0.361-0.361-0.361c-0.246-0.246-0.638-0.246-0.884 0s-0.246 0.638 0 0.884l0.361 0.361-0.361 0.361c-0.246 0.246-0.246 0.638 0 0.884 0.12 0.12 0.282 0.183 0.444 0.183s0.319-0.063 0.444-0.183l0.361-0.361 0.361 0.361c0.12 0.12 0.282 0.183 0.444 0.183s0.319-0.063 0.444-0.183c0.246-0.246 0.246-0.638 0-0.884l-0.371-0.361z"></path>
</svg>
