<!-- Generated by IcoMoon.io -->
<svg version="1.1" xmlns="http://www.w3.org/2000/svg" width="32" height="32" viewBox="0 0 32 32">
<title>controls2</title>
<path d="M6.4 28.267c2.060 0 3.733-1.673 3.733-3.733 0-1.877-1.396-3.43-3.2-3.692v-16.575c0-0.293-0.241-0.533-0.533-0.533s-0.533 0.241-0.533 0.533v16.575c-1.804 0.261-3.2 1.814-3.2 3.692 0 2.060 1.673 3.733 3.733 3.733zM6.4 21.867c1.469 0 2.667 1.197 2.667 2.667s-1.197 2.667-2.667 2.667-2.667-1.197-2.667-2.667 1.197-2.667 2.667-2.667z"></path>
<path d="M25.067 11.158v16.575c0 0.293 0.241 0.533 0.533 0.533s0.533-0.241 0.533-0.533v-16.575c1.804-0.261 3.2-1.814 3.2-3.691 0-2.060-1.673-3.733-3.733-3.733s-3.733 1.673-3.733 3.733c0 1.877 1.396 3.43 3.2 3.691zM25.6 4.8c1.469 0 2.667 1.197 2.667 2.667s-1.197 2.667-2.667 2.667-2.667-1.197-2.667-2.667 1.197-2.667 2.667-2.667z"></path>
<path d="M15.467 19.158v8.575c0 0.293 0.241 0.533 0.533 0.533s0.533-0.241 0.533-0.533v-8.575c1.804-0.261 3.2-1.814 3.2-3.691s-1.396-3.43-3.2-3.691v-7.508c0-0.293-0.241-0.533-0.533-0.533s-0.533 0.241-0.533 0.533v7.508c-1.804 0.261-3.2 1.814-3.2 3.691s1.396 3.43 3.2 3.691zM16 12.8c1.469 0 2.667 1.197 2.667 2.667s-1.197 2.667-2.667 2.667-2.667-1.197-2.667-2.667 1.197-2.667 2.667-2.667z"></path>
<path d="M31.467 0h-30.933c-0.293 0-0.533 0.241-0.533 0.533v30.933c0 0.293 0.241 0.533 0.533 0.533h30.933c0.293 0 0.533-0.241 0.533-0.533v-30.933c0-0.293-0.241-0.533-0.533-0.533zM30.933 30.933h-29.867v-29.867h29.867v29.867z"></path>
</svg>
