<!-- Generated by IcoMoon.io -->
<svg version="1.1" xmlns="http://www.w3.org/2000/svg" width="32" height="32" viewBox="0 0 32 32">
<title>controls</title>
<path d="M4.34 23.101v-21.197c0-0.298-0.241-0.544-0.544-0.544-0.298 0-0.544 0.241-0.544 0.544v21.197c-1.835 0.261-3.252 1.846-3.252 3.754 0 2.091 1.705 3.796 3.796 3.796s3.796-1.705 3.796-3.796c0-1.909-1.417-3.493-3.252-3.754zM3.796 29.563c-1.495 0-2.714-1.218-2.714-2.714s1.218-2.714 2.714-2.714 2.714 1.218 2.714 2.714c0 1.501-1.218 2.714-2.714 2.714z"></path>
<path d="M12.476 16.591v-14.688c0-0.298-0.241-0.544-0.544-0.544-0.298 0-0.544 0.241-0.544 0.544v14.688c-1.835 0.267-3.252 1.846-3.252 3.754s1.417 3.488 3.252 3.754v6.008c0 0.298 0.241 0.544 0.544 0.544 0.298 0 0.544-0.241 0.544-0.544v-6.008c1.835-0.267 3.252-1.846 3.252-3.754s-1.417-3.488-3.252-3.754zM11.932 23.054c-1.495 0-2.714-1.218-2.714-2.714s1.218-2.714 2.714-2.714 2.714 1.218 2.714 2.714c0 1.501-1.218 2.714-2.714 2.714z"></path>
<path d="M20.612 10.081v-8.178c0-0.298-0.241-0.544-0.544-0.544-0.298 0-0.544 0.241-0.544 0.544v8.178c-1.835 0.267-3.252 1.846-3.252 3.754s1.417 3.488 3.252 3.754v12.518c0 0.298 0.241 0.544 0.544 0.544 0.298 0 0.544-0.241 0.544-0.544v-12.518c1.835-0.267 3.252-1.846 3.252-3.754s-1.417-3.488-3.252-3.754zM20.068 16.549c-1.495 0-2.714-1.218-2.714-2.714s1.218-2.714 2.714-2.714c1.495 0 2.714 1.218 2.714 2.714s-1.218 2.714-2.714 2.714z"></path>
<path d="M32 7.325c0-1.909-1.417-3.488-3.252-3.754v-1.668c0-0.298-0.241-0.544-0.544-0.544-0.298 0-0.544 0.241-0.544 0.544v1.668c-1.835 0.267-3.252 1.846-3.252 3.754s1.417 3.488 3.252 3.754v19.027c0 0.298 0.241 0.544 0.544 0.544 0.298 0 0.544-0.241 0.544-0.544v-19.027c1.835-0.261 3.252-1.846 3.252-3.754zM28.204 10.039c-1.495 0-2.714-1.218-2.714-2.714s1.218-2.714 2.714-2.714c1.495 0 2.714 1.218 2.714 2.714s-1.218 2.714-2.714 2.714z"></path>
<path d="M28.748 5.699h-1.088c-0.298 0-0.544 0.241-0.544 0.544s0.241 0.544 0.544 0.544h1.082c0.298 0 0.544-0.241 0.544-0.544s-0.241-0.544-0.539-0.544z"></path>
<path d="M20.612 12.209h-1.082c-0.298 0-0.544 0.241-0.544 0.544 0 0.298 0.241 0.544 0.544 0.544h1.082c0.298 0 0.544-0.241 0.544-0.544-0.005-0.303-0.246-0.544-0.544-0.544z"></path>
<path d="M20.612 14.379h-1.082c-0.298 0-0.544 0.241-0.544 0.544 0 0.298 0.241 0.544 0.544 0.544h1.082c0.298 0 0.544-0.241 0.544-0.544-0.005-0.303-0.246-0.544-0.544-0.544z"></path>
<path d="M12.476 18.719h-1.082c-0.298 0-0.544 0.241-0.544 0.544s0.241 0.544 0.544 0.544h1.082c0.298 0 0.544-0.241 0.544-0.544s-0.246-0.544-0.544-0.544z"></path>
<path d="M12.476 20.889h-1.082c-0.298 0-0.544 0.241-0.544 0.544 0 0.298 0.241 0.544 0.544 0.544h1.082c0.298 0 0.544-0.241 0.544-0.544-0.005-0.303-0.246-0.544-0.544-0.544z"></path>
<path d="M4.34 25.224h-1.088c-0.298 0-0.544 0.241-0.544 0.544s0.241 0.544 0.544 0.544h1.088c0.298 0 0.544-0.241 0.544-0.544s-0.246-0.544-0.544-0.544z"></path>
<path d="M4.34 27.393h-1.088c-0.298 0-0.544 0.241-0.544 0.544s0.241 0.544 0.544 0.544h1.088c0.298 0 0.544-0.241 0.544-0.544s-0.246-0.544-0.544-0.544z"></path>
<path d="M28.748 7.869h-1.088c-0.298 0-0.544 0.241-0.544 0.544s0.241 0.544 0.544 0.544h1.082c0.298 0 0.544-0.241 0.544-0.544s-0.241-0.544-0.539-0.544z"></path>
</svg>
