<!-- Generated by IcoMoon.io -->
<svg version="1.1" xmlns="http://www.w3.org/2000/svg" width="32" height="32" viewBox="0 0 32 32">
<title>correct</title>
<path d="M9.376 15.059c-0.441-0.441-1.155-0.441-1.597 0s-0.441 1.155 0 1.597l5.208 5.208c0.221 0.221 0.493 0.331 0.801 0.331 0.029 0 0.029 0 0.052 0 0.302-0.029 0.604-0.163 0.824-0.412l13.028-15.617c0.383-0.47 0.331-1.184-0.139-1.597-0.47-0.383-1.184-0.331-1.597 0.139l-12.255 14.676-4.325-4.325z"></path>
<path d="M24.418 2.444c-6.334-3.965-14.462-3.030-19.75 2.258-6.223 6.223-6.223 16.389 0 22.612 3.112 3.112 7.216 4.685 11.292 4.685s8.18-1.567 11.292-4.685c5.318-5.318 6.223-13.469 2.229-19.803-0.331-0.522-1.022-0.691-1.544-0.36s-0.691 1.022-0.36 1.544c3.443 5.451 2.642 12.447-1.927 17.022-5.341 5.341-14.073 5.341-19.419 0s-5.335-14.078 0.012-19.419c4.575-4.546 11.541-5.341 16.993-1.956 0.523 0.331 1.213 0.163 1.544-0.36 0.325-0.522 0.163-1.208-0.36-1.538v0z"></path>
</svg>
