<!-- Generated by IcoMoon.io -->
<svg version="1.1" xmlns="http://www.w3.org/2000/svg" width="32" height="32" viewBox="0 0 32 32">
<title>envelope</title>
<path fill="#64b5f6" d="M0 12l15.409 9.804c0.178 0.131 0.382 0.193 0.591 0.193s0.418-0.063 0.591-0.193l15.409-9.804-15.399-11.801c-0.356-0.267-0.842-0.267-1.197 0l-15.404 11.801z"></path>
<path fill="#eceff1" d="M26.003 0h-20c-1.103 0-2.003 0.899-2.003 2.003v21.997c0 0.554 0.45 0.999 0.999 0.999h22.003c0.554 0 0.999-0.45 0.999-0.999v-21.997c0-1.103-0.894-2.003-1.997-2.003z"></path>
<path fill="#90a4ae" d="M8.999 6.003h14.003c0.554 0 0.999-0.45 0.999-0.999s-0.45-0.999-0.999-0.999h-14.003c-0.554 0-0.999 0.45-0.999 0.999s0.45 0.999 0.999 0.999z"></path>
<path fill="#90a4ae" d="M23.001 8h-14.003c-0.554 0-0.999 0.45-0.999 0.999s0.45 0.999 0.999 0.999h14.003c0.554 0 0.999-0.45 0.999-0.999s-0.45-0.999-0.999-0.999z"></path>
<path fill="#90a4ae" d="M16.999 12h-8c-0.554 0-0.999 0.45-0.999 0.999s0.45 0.999 0.999 0.999h8c0.554 0 0.999-0.45 0.999-0.999s-0.444-0.999-0.999-0.999z"></path>
<path fill="#1e88e5" d="M16.591 21.804c-0.178 0.131-0.382 0.193-0.591 0.193s-0.418-0.063-0.591-0.193l-15.409-9.804v18.003c0 1.103 0.894 1.997 2.003 1.997h28c1.103 0 2.003-0.894 2.003-2.003v-17.997l-15.414 9.804z"></path>
<path fill="#2196f3" d="M30.003 32h-28c-1.124 0-2.003-0.878-2.003-1.997 0-0.319 0.152-0.617 0.408-0.805l15.001-10.003c0.178-0.131 0.382-0.193 0.591-0.193s0.418 0.063 0.591 0.193l15.001 10.003c0.256 0.188 0.408 0.486 0.408 0.805 0 1.119-0.878 1.997-1.997 1.997z"></path>
</svg>
