<!-- Generated by IcoMoon.io -->
<svg version="1.1" xmlns="http://www.w3.org/2000/svg" width="32" height="32" viewBox="0 0 32 32">
<title>facebook</title>
<path fill="#475993" d="M27.686 0h-23.373c-2.384 0-4.314 1.929-4.314 4.314v23.378c0 2.379 1.929 4.308 4.314 4.308h11.529l0.021-11.435h-2.97c-0.387 0-0.701-0.314-0.701-0.701l-0.016-3.686c0-0.387 0.314-0.706 0.701-0.706h2.965v-3.561c0-4.131 2.526-6.384 6.212-6.384h3.027c0.387 0 0.701 0.314 0.701 0.701v3.106c0 0.387-0.314 0.701-0.701 0.701h-1.856c-2.003 0-2.395 0.952-2.395 2.353v3.085h4.408c0.418 0 0.748 0.366 0.695 0.784l-0.439 3.686c-0.042 0.35-0.34 0.617-0.695 0.617h-3.948l-0.026 11.441h6.86c2.379 0 4.314-1.929 4.314-4.314v-23.373c0-2.384-1.929-4.314-4.314-4.314z"></path>
</svg>
