<!-- Generated by IcoMoon.io -->
<svg version="1.1" xmlns="http://www.w3.org/2000/svg" width="24" height="32" viewBox="0 0 24 32">
<title>file</title>
<path d="M23.341 8.601l-8.418-8.418c-0.12-0.12-0.277-0.183-0.45-0.183h-11.859c-1.443 0-2.614 1.171-2.614 2.614v26.771c0 1.443 1.171 2.614 2.614 2.614h18.301c1.443 0 2.614-1.171 2.614-2.614v-20.335c0-0.167-0.068-0.329-0.188-0.45zM15.111 2.159l6.259 6.259h-4.91c-0.742 0-1.349-0.607-1.349-1.349v-4.91zM22.264 29.386c0 0.742-0.607 1.349-1.349 1.349h-18.301c-0.742 0-1.349-0.607-1.349-1.349v-26.771c0-0.742 0.607-1.349 1.349-1.349h11.231v5.804c0 1.443 1.171 2.614 2.614 2.614h5.804v19.702z"></path>
<path d="M16.826 16.063h-10.123c-0.35 0-0.633 0.282-0.633 0.633s0.282 0.633 0.633 0.633h10.118c0.35 0 0.633-0.282 0.633-0.633s-0.282-0.633-0.627-0.633z"></path>
<path d="M16.826 18.886h-10.123c-0.35 0-0.633 0.282-0.633 0.633s0.282 0.633 0.633 0.633h10.118c0.35 0 0.633-0.282 0.633-0.633s-0.282-0.633-0.627-0.633z"></path>
<path d="M16.826 21.715h-10.123c-0.35 0-0.633 0.282-0.633 0.633s0.282 0.633 0.633 0.633h10.118c0.35 0 0.633-0.282 0.633-0.633s-0.282-0.633-0.627-0.633z"></path>
<path d="M13.537 24.539h-6.834c-0.35 0-0.633 0.282-0.633 0.633s0.282 0.633 0.633 0.633h6.829c0.35 0 0.633-0.282 0.633-0.633 0.005-0.35-0.282-0.633-0.627-0.633z"></path>
</svg>
