<!-- Generated by IcoMoon.io -->
<svg version="1.1" xmlns="http://www.w3.org/2000/svg" width="27" height="32" viewBox="0 0 27 32">
<title>hourglass2</title>
<path d="M26.133 30.933h-1.6v-2.133h-2.667v-5.454c0-1.438-0.716-2.776-1.914-3.576l-5.658-3.77 5.658-3.77c1.197-0.8 1.914-2.139 1.914-3.576v-5.454h2.667v-2.133h1.6c0.293 0 0.533-0.241 0.533-0.533s-0.241-0.533-0.533-0.533h-25.6c-0.293 0-0.533 0.241-0.533 0.533s0.241 0.533 0.533 0.533h1.6v2.133h2.667v5.454c0 1.438 0.716 2.776 1.914 3.576l5.658 3.77-5.658 3.77c-1.197 0.8-1.914 2.139-1.914 3.576v5.454h-2.667v2.133h-1.6c-0.293 0-0.533 0.241-0.533 0.533s0.241 0.533 0.533 0.533h25.6c0.293 0 0.533-0.241 0.533-0.533s-0.241-0.533-0.533-0.533zM3.2 2.133v-1.067h20.267v1.067h-20.267zM7.305 11.341c-0.899-0.601-1.438-1.605-1.438-2.688v-5.454h14.933v5.454c0 1.082-0.539 2.086-1.438 2.688l-6.029 4.016-6.029-4.016zM5.867 23.346c0-1.082 0.539-2.086 1.438-2.688l6.029-4.016 6.029 4.016c0.899 0.601 1.438 1.605 1.438 2.688v5.454h-14.933v-5.454zM3.2 29.867h20.267v1.067h-20.267v-1.067z"></path>
<path d="M8.492 9.563c-0.309-0.204-0.492-0.544-0.492-0.915v-1.187c0-0.293-0.241-0.533-0.533-0.533s-0.533 0.241-0.533 0.533v1.187c0 0.727 0.361 1.401 0.962 1.804l2.473 1.647c0.089 0.063 0.193 0.089 0.298 0.089 0.173 0 0.34-0.084 0.444-0.235 0.162-0.246 0.099-0.575-0.146-0.737l-2.473-1.652z"></path>
<path d="M18.771 22.008l-2.473-1.647c-0.246-0.162-0.575-0.099-0.737 0.146s-0.099 0.575 0.146 0.737l2.473 1.647c0.308 0.204 0.491 0.544 0.491 0.915v1.187c0 0.293 0.241 0.533 0.533 0.533s0.533-0.241 0.533-0.533v-1.187c-0.005-0.727-0.366-1.401-0.967-1.799z"></path>
</svg>
