<!-- Generated by IcoMoon.io -->
<svg version="1.1" xmlns="http://www.w3.org/2000/svg" width="32" height="32" viewBox="0 0 32 32">
<title>internet</title>
<path d="M16 9.532c3.566 0 6.468 2.902 6.468 6.468 0 0.512 0.418 0.931 0.931 0.931s0.931-0.418 0.931-0.931c0-4.596-3.739-8.329-8.329-8.329s-8.335 3.733-8.335 8.329 3.739 8.329 8.335 8.329c2.949 0 5.71-1.584 7.2-4.131 0.261-0.444 0.11-1.014-0.335-1.276s-1.014-0.11-1.276 0.335c-1.156 1.982-3.299 3.21-5.59 3.21-3.566 0-6.468-2.902-6.468-6.468s2.902-6.468 6.468-6.468z"></path>
<path d="M31.953 14.766c-0.586-7.775-6.886-14.102-14.656-14.714-4.701-0.371-9.291 1.318-12.612 4.633-3.315 3.315-5.004 7.911-4.633 12.612 0.607 7.744 6.907 14.044 14.651 14.651 0.429 0.031 0.852 0.052 1.276 0.052 4.246 0 8.319-1.668 11.336-4.685 0.366-0.366 0.366-0.957 0-1.318-0.366-0.366-0.952-0.366-1.318 0-2.928 2.928-6.991 4.424-11.148 4.094-6.839-0.539-12.403-6.102-12.941-12.941-0.329-4.152 1.166-8.214 4.094-11.148 2.928-2.928 6.991-4.424 11.148-4.094 6.865 0.539 12.429 6.128 12.946 12.999 0.073 0.941 0.052 1.888-0.063 2.808-0.12 0.978-0.711 1.835-1.584 2.285-0.79 0.408-1.678 0.408-2.442-0.005-0.455-0.246-1.020-0.078-1.265 0.376s-0.078 1.020 0.376 1.265c1.312 0.711 2.834 0.716 4.183 0.021 1.422-0.737 2.39-2.123 2.583-3.718 0.126-1.046 0.146-2.112 0.068-3.174z"></path>
</svg>
