<!-- Generated by IcoMoon.io -->
<svg version="1.1" xmlns="http://www.w3.org/2000/svg" width="32" height="32" viewBox="0 0 32 32">
<title>left-arrow</title>
<path d="M16 0c-8.821 0-16 7.179-16 16s7.179 16 16 16 16-7.179 16-16-7.179-16-16-16zM16 30.813c-8.167 0-14.813-6.646-14.813-14.813s6.646-14.813 14.813-14.813 14.813 6.646 14.813 14.813-6.646 14.813-14.813 14.813z"></path>
<path d="M19.205 8.471c-0.23-0.23-0.607-0.23-0.837 0l-6.813 6.813c-0.397 0.397-0.397 1.035 0 1.433l6.813 6.813c0.115 0.115 0.267 0.173 0.418 0.173s0.303-0.058 0.418-0.173c0.23-0.23 0.23-0.607 0-0.837l-6.693-6.693 6.693-6.693c0.235-0.23 0.235-0.607 0-0.837z"></path>
</svg>
