<!-- Generated by IcoMoon.io -->
<svg version="1.1" xmlns="http://www.w3.org/2000/svg" width="32" height="32" viewBox="0 0 32 32">
<title>linkedin</title>
<path fill="#0077b7" d="M29.103 0h-26.207c-1.6 0-2.897 1.297-2.897 2.897v26.212c0 1.595 1.297 2.892 2.897 2.892h26.212c1.6 0 2.897-1.297 2.897-2.897v-26.207c-0.005-1.6-1.302-2.897-2.902-2.897zM9.903 27.629c0 0.465-0.376 0.842-0.842 0.842h-3.587c-0.465 0-0.842-0.376-0.842-0.842v-15.027c0-0.465 0.376-0.842 0.842-0.842h3.587c0.465 0 0.842 0.376 0.842 0.842v15.027zM7.268 10.337c-1.882 0-3.409-1.527-3.409-3.409s1.527-3.409 3.409-3.409 3.409 1.527 3.409 3.409-1.527 3.409-3.409 3.409zM28.643 27.697c0 0.429-0.345 0.774-0.774 0.774h-3.848c-0.429 0-0.774-0.345-0.774-0.774v-7.048c0-1.051 0.308-4.607-2.75-4.607-2.374 0-2.855 2.437-2.949 3.529v8.131c0 0.429-0.345 0.774-0.774 0.774h-3.723c-0.429 0-0.774-0.345-0.774-0.774v-15.169c0-0.429 0.345-0.774 0.774-0.774h3.723c0.429 0 0.774 0.345 0.774 0.774v1.312c0.878-1.318 2.186-2.337 4.967-2.337 6.159 0 6.128 5.757 6.128 8.92v7.268z"></path>
</svg>
