<!-- Generated by IcoMoon.io -->
<svg version="1.1" xmlns="http://www.w3.org/2000/svg" width="32" height="32" viewBox="0 0 32 32">
<title>luxury</title>
<path d="M26.374 17.6l-0.936 0.92 4.722 4.784-4.722 4.784 0.936 0.92 5.626-5.705z"></path>
<path d="M6.562 18.52l-0.936-0.92-5.626 5.705 5.626 5.705 0.936-0.92-4.722-4.784z"></path>
<path d="M26.238 2.98h-20.476l-3.671 7.341 13.908 13.909 13.909-13.909-3.671-7.341zM25.427 4.293l2.625 5.244h-7.127l-0.873-5.244c0 0 5.375 0 5.375 0zM13.276 4.293h5.443l0.873 5.244h-7.19l0.873-5.244zM6.573 4.293h5.375l-0.873 5.244h-7.127l2.625-5.244zM4.471 10.85h6.688l3.341 10.029-10.029-10.029zM12.539 10.85h6.923l-3.461 10.384-3.461-10.384zM17.501 20.878l3.341-10.029h6.688l-10.029 10.029z"></path>
</svg>
