<!-- Generated by IcoMoon.io -->
<svg version="1.1" xmlns="http://www.w3.org/2000/svg" width="30" height="32" viewBox="0 0 30 32">
<title>money</title>
<path d="M27.388 0h-24.931c-1.354 0-2.458 1.103-2.458 2.458v24.742c0 1.192 0.858 2.191 1.987 2.41v1.762c0 0.345 0.282 0.627 0.627 0.627h4.34c0.345 0 0.627-0.282 0.627-0.627v-1.72h14.682v1.72c0 0.345 0.282 0.627 0.627 0.627h4.34c0.345 0 0.627-0.282 0.627-0.627v-1.762c1.129-0.22 1.987-1.218 1.987-2.41v-24.742c0-1.354-1.103-2.458-2.458-2.458zM6.327 30.745h-3.085v-1.093h3.085v1.093zM26.604 30.745h-3.085v-1.093h3.085v1.093zM28.591 22.447h-1.448v-15.237h1.448v15.237zM28.591 5.956h-1.448v-2.625c0-0.345-0.282-0.627-0.627-0.627h-23.184c-0.345 0-0.627 0.282-0.627 0.627v22.996c0 0.345 0.282 0.627 0.627 0.627h23.184c0.345 0 0.627-0.282 0.627-0.627v-2.625h1.448v3.498c0 0.664-0.539 1.203-1.203 1.203h-24.931c-0.664 0-1.203-0.539-1.203-1.203v-24.742c0-0.664 0.539-1.203 1.203-1.203h24.931c0.664 0 1.203 0.539 1.203 1.203v3.498zM25.888 3.958v21.741h-21.929v-21.741h21.929z"></path>
<path d="M20.999 8.748c-3.352-3.352-8.805-3.352-12.157 0-1.626 1.621-2.52 3.78-2.52 6.076s0.894 4.455 2.52 6.081c1.678 1.673 3.88 2.515 6.081 2.515s4.403-0.837 6.081-2.515c1.626-1.626 2.52-3.78 2.52-6.081s-0.899-4.45-2.526-6.076zM20.115 20.016c-2.86 2.86-7.519 2.86-10.384 0-1.386-1.386-2.149-3.231-2.149-5.192s0.763-3.807 2.149-5.192c1.433-1.433 3.31-2.149 5.192-2.149s3.759 0.716 5.192 2.149c1.386 1.386 2.149 3.231 2.149 5.192 0 1.966-0.763 3.807-2.149 5.192z"></path>
<path d="M19.32 10.426c-1.176-1.176-2.74-1.825-4.397-1.825s-3.226 0.648-4.397 1.825c-1.176 1.176-1.825 2.74-1.825 4.397 0 1.663 0.648 3.226 1.825 4.397 1.176 1.176 2.74 1.825 4.397 1.825 1.663 0 3.226-0.648 4.397-1.825v0c1.176-1.176 1.825-2.74 1.825-4.397s-0.648-3.221-1.825-4.397zM14.923 9.861c1.114 0 2.175 0.366 3.038 1.041l-2.055 2.055c-0.612-0.324-1.354-0.324-1.966 0l-2.055-2.055c0.863-0.675 1.924-1.041 3.038-1.041zM15.529 15.435c-0.335 0.335-0.878 0.335-1.213 0s-0.335-0.878 0-1.213c0.167-0.167 0.387-0.251 0.607-0.251s0.439 0.084 0.607 0.251c0.335 0.335 0.335 0.878 0 1.213zM9.956 14.829c0-1.114 0.366-2.175 1.041-3.038l2.055 2.055c-0.324 0.612-0.324 1.354 0 1.966l-2.055 2.055c-0.675-0.868-1.041-1.924-1.041-3.038zM14.923 19.796c-1.114 0-2.175-0.366-3.038-1.041l2.055-2.055c0.309 0.162 0.643 0.241 0.983 0.241s0.675-0.078 0.983-0.241l2.055 2.055c-0.863 0.674-1.924 1.041-3.038 1.041zM18.85 17.867l-2.055-2.055c0.324-0.612 0.324-1.354 0-1.966l2.055-2.055c0.674 0.863 1.041 1.919 1.041 3.038 0 1.114-0.366 2.17-1.041 3.038z"></path>
<path d="M24.173 20.643c-0.345 0-0.627 0.282-0.627 0.627v2.761c0 0.345 0.282 0.627 0.627 0.627s0.627-0.282 0.627-0.627v-2.761c0-0.345-0.277-0.627-0.627-0.627z"></path>
<path d="M24.173 18.635c-0.805 0-0.81 1.255 0 1.255s0.81-1.255 0-1.255z"></path>
</svg>
