<!-- Generated by IcoMoon.io -->
<svg version="1.1" xmlns="http://www.w3.org/2000/svg" width="32" height="32" viewBox="0 0 32 32">
<title>multimedia</title>
<path fill="#1976d2" d="M15.441 21.307l-5.438 9.689 11.31-6.829z"></path>
<path fill="#2196f3" d="M31.629 1.213c-0.277-0.225-0.664-0.282-0.999-0.152l-30.003 12.005c-0.371 0.146-0.617 0.502-0.627 0.905s0.22 0.763 0.58 0.936l26.003 12c0.131 0.058 0.277 0.094 0.418 0.094 0.162 0 0.324-0.042 0.465-0.115 0.277-0.146 0.471-0.413 0.518-0.722l4-24c0.063-0.361-0.073-0.722-0.356-0.952z"></path>
<path fill="#64b5f6" d="M31.001 1.992l-20.999 17.26v11.744l5.495-9.208z"></path>
</svg>
