<!-- Generated by IcoMoon.io -->
<svg version="1.1" xmlns="http://www.w3.org/2000/svg" width="32" height="32" viewBox="0 0 32 32">
<title>puzzle</title>
<path d="M26.865 17.705h-4.722c-0.361 0-0.659 0.293-0.659 0.659v0.915c0 0.544-0.439 0.983-0.983 0.983s-0.983-0.439-0.983-0.983v-0.915c0-0.361-0.293-0.659-0.659-0.659h-4.57v-4.058h0.601c1.041 0 1.919-0.831 1.956-1.851 0.021-0.528-0.173-1.025-0.539-1.401s-0.858-0.586-1.38-0.586h-0.633v-4.675c0-0.214-0.084-0.413-0.235-0.559s-0.35-0.225-0.565-0.225c-3.624 0.084-7.017 1.563-9.553 4.157-2.541 2.599-3.942 6.034-3.942 9.668 0 2.871 0.873 5.626 2.52 7.963 1.61 2.285 3.843 4.010 6.452 4.988 0.241 0.089 0.512-0.031 0.601-0.272s-0.031-0.512-0.272-0.601c-4.858-1.825-8.167-6.452-8.356-11.608h4.559c0.361 0 0.659-0.293 0.659-0.659v-0.915c0-0.267 0.105-0.523 0.298-0.706 0.193-0.188 0.45-0.282 0.716-0.277 0.523 0.021 0.946 0.476 0.946 1.020v0.878c0 0.361 0.293 0.659 0.659 0.659h4.57v4.288h-0.633c-1.061 0-1.919 0.863-1.919 1.919 0 1.061 0.863 1.919 1.919 1.919h0.633v4.282c-0.826-0.031-1.647-0.136-2.447-0.324-0.251-0.058-0.502 0.099-0.565 0.35-0.058 0.251 0.099 0.502 0.35 0.565 1.020 0.235 2.071 0.356 3.127 0.356 3.634 0 7.069-1.401 9.668-3.942 2.593-2.536 4.068-5.929 4.157-9.553 0.005-0.214-0.073-0.413-0.225-0.565-0.146-0.152-0.345-0.235-0.554-0.235zM13.354 13.37v4.34h-4.288v-0.601c0-1.041-0.831-1.919-1.851-1.956-0.528-0.021-1.025 0.173-1.401 0.539s-0.586 0.858-0.586 1.38v0.633h-4.282c0.246-6.677 5.705-12.167 12.408-12.408v4.795c0 0.361 0.293 0.659 0.659 0.659h0.915c0.267 0 0.523 0.105 0.706 0.298 0.188 0.193 0.282 0.45 0.277 0.716-0.021 0.523-0.476 0.946-1.020 0.946h-0.878c-0.361 0-0.659 0.298-0.659 0.659zM14.295 31.054v-4.559c0-0.361-0.293-0.659-0.659-0.659h-0.915c-0.544 0-0.983-0.439-0.983-0.983s0.439-0.983 0.983-0.983h0.915c0.361 0 0.659-0.293 0.659-0.659v-4.57h4.288v0.633c0 1.061 0.863 1.919 1.919 1.919s1.919-0.863 1.919-1.919v-0.633h4.282c-0.241 6.709-5.731 12.167-12.408 12.413z"></path>
<path d="M30.065 6.756c-1.176-1.976-2.844-3.639-4.816-4.816-0.225-0.131-0.512-0.058-0.643 0.162-0.131 0.225-0.058 0.512 0.162 0.643 3.791 2.259 6.133 6.212 6.29 10.609h-4.748c-0.261 0-0.471 0.209-0.471 0.471v1.067c0 0.544-0.424 0.999-0.946 1.020-0.272 0.010-0.523-0.089-0.716-0.277s-0.298-0.439-0.298-0.706v-1.103c0-0.261-0.209-0.471-0.471-0.471h-4.758v-4.058h0.633c1.061 0 1.919-0.863 1.919-1.919 0-1.061-0.863-1.919-1.919-1.919h-0.633v-4.518c1.642 0.058 3.231 0.424 4.732 1.082 0.235 0.105 0.512-0.005 0.617-0.241s-0.005-0.512-0.241-0.617c-1.663-0.732-3.425-1.124-5.25-1.166-0.214-0.005-0.413 0.073-0.565 0.225-0.152 0.146-0.235 0.345-0.235 0.559v4.952c0 0.361 0.293 0.659 0.659 0.659h0.915c0.544 0 0.983 0.439 0.983 0.983s-0.439 0.983-0.983 0.983h-0.915c-0.361 0-0.659 0.293-0.659 0.659v4.497c0 0.429 0.35 0.779 0.779 0.779h4.444v0.633c0 0.528 0.209 1.014 0.586 1.38 0.361 0.35 0.831 0.539 1.333 0.539 0.021 0 0.047 0 0.073 0 1.020-0.037 1.851-0.915 1.851-1.956v-0.601h4.439c0.214 0 0.413-0.084 0.559-0.235s0.225-0.35 0.225-0.565c-0.058-2.374-0.727-4.706-1.935-6.735z"></path>
</svg>
