<!-- Generated by IcoMoon.io -->
<svg version="1.1" xmlns="http://www.w3.org/2000/svg" width="32" height="32" viewBox="0 0 32 32">
<title>question</title>
<path d="M16.988 25.182c0 0.552-0.447 0.999-0.999 0.999s-0.999-0.447-0.999-0.999c0-0.552 0.447-0.999 0.999-0.999s0.999 0.447 0.999 0.999z"></path>
<path d="M15.765 6.688c-3.132 0-5.082 1.945-5.082 5.082 0 0.277 0.225 0.502 0.502 0.502s0.502-0.225 0.502-0.502c0-2.593 1.485-4.084 4.078-4.084 3.937 0 4.528 2.834 4.528 4.528 0 1.642-1.349 3.514-3.142 4.35-2.029 0.946-1.673 4.267-1.658 4.403 0.031 0.256 0.246 0.444 0.497 0.444 0.021 0 0.037 0 0.058-0.005 0.272-0.031 0.471-0.277 0.439-0.554-0.005-0.026-0.272-2.75 1.088-3.383 2.154-1.004 3.718-3.216 3.718-5.255 0-3.456-2.065-5.527-5.527-5.527z"></path>
<path d="M16 0c-8.837 0-16 7.163-16 16s7.163 16 16 16 16-7.163 16-16-7.163-16-16-16zM16 31.001c-8.272 0-15.001-6.729-15.001-15.001s6.729-15.001 15.001-15.001c8.272 0 15.001 6.729 15.001 15.001s-6.729 15.001-15.001 15.001z"></path>
</svg>
