<!-- Generated by IcoMoon.io -->
<svg version="1.1" xmlns="http://www.w3.org/2000/svg" width="32" height="32" viewBox="0 0 32 32">
<title>right-arrow-1</title>
<path fill="#4fba6f" d="M16 31.409v0c-8.507 0-15.409-6.902-15.409-15.409v0c0-8.507 6.897-15.409 15.409-15.409v0c8.507 0 15.409 6.897 15.409 15.409v0c0 8.507-6.902 15.409-15.409 15.409z"></path>
<path fill="#4fba6f" d="M16 32c-8.821 0-16-7.179-16-16s7.179-16 16-16 16 7.179 16 16-7.179 16-16 16zM16 1.187c-8.167 0-14.813 6.646-14.813 14.813s6.646 14.813 14.813 14.813 14.813-6.646 14.813-14.813-6.646-14.813-14.813-14.813z"></path>
<path fill="#fff" d="M13.213 23.702c-0.152 0-0.303-0.058-0.418-0.173-0.23-0.23-0.23-0.607 0-0.837l6.693-6.693-6.693-6.693c-0.23-0.23-0.23-0.607 0-0.837s0.607-0.23 0.837 0l6.813 6.813c0.397 0.397 0.397 1.035 0 1.433l-6.813 6.813c-0.115 0.115-0.267 0.173-0.418 0.173z"></path>
</svg>
