<!-- Generated by IcoMoon.io -->
<svg version="1.1" xmlns="http://www.w3.org/2000/svg" width="32" height="32" viewBox="0 0 32 32">
<title>right-arrow</title>
<path d="M16 0c-8.821 0-16 7.179-16 16s7.179 16 16 16 16-7.179 16-16-7.179-16-16-16zM16 30.813c-8.167 0-14.813-6.646-14.813-14.813s6.646-14.813 14.813-14.813 14.813 6.646 14.813 14.813-6.646 14.813-14.813 14.813z"></path>
<path d="M13.631 8.471c-0.23-0.23-0.607-0.23-0.837 0s-0.23 0.607 0 0.837l6.693 6.693-6.693 6.693c-0.23 0.23-0.23 0.607 0 0.837 0.115 0.115 0.267 0.173 0.418 0.173s0.303-0.058 0.418-0.173l6.813-6.813c0.397-0.397 0.397-1.035 0-1.433l-6.813-6.813z"></path>
</svg>
