<!-- Generated by IcoMoon.io -->
<svg version="1.1" xmlns="http://www.w3.org/2000/svg" width="26" height="32" viewBox="0 0 26 32">
<title>round</title>
<path d="M23.937 20.319c-0.465-0.047-0.931 0.084-1.302 0.366-0.293-0.491-0.795-0.842-1.375-0.899-0.465-0.047-0.931 0.084-1.302 0.366-0.293-0.491-0.795-0.842-1.375-0.899-0.356-0.037-0.711 0.031-1.025 0.193v-2.468c1.726-1.872 2.672-4.298 2.672-6.85 0.016-5.59-4.528-10.128-10.107-10.128s-10.123 4.539-10.123 10.123 4.539 10.123 10.123 10.123c1.312 0 2.578-0.246 3.775-0.727v6.641c0 3.221 2.625 5.846 5.846 5.846s5.846-2.625 5.846-5.846v-3.937c0-0.973-0.727-1.809-1.652-1.903zM13.898 13.595v4.831c-1.187 0.544-2.452 0.816-3.775 0.816-5.030 0-9.119-4.089-9.119-9.119s4.089-9.119 9.119-9.119 9.119 4.089 9.119 9.119c0 1.903-0.586 3.733-1.668 5.26v-1.71c0-0.973-0.727-1.809-1.647-1.903-0.518-0.052-1.035 0.12-1.422 0.465s-0.607 0.842-0.607 1.359zM24.586 26.154c0 2.672-2.175 4.842-4.842 4.842s-4.842-2.175-4.842-4.842v-12.559c0-0.235 0.099-0.46 0.277-0.617 0.157-0.141 0.35-0.214 0.559-0.214 0.031 0 0.058 0 0.089 0.005 0.418 0.042 0.748 0.439 0.748 0.905v7.404c0 0.277 0.225 0.502 0.502 0.502s0.502-0.225 0.502-0.502c0-0.235 0.099-0.46 0.277-0.617 0.178-0.162 0.408-0.235 0.648-0.209 0.418 0.042 0.748 0.439 0.748 0.905v0.46c0 0.277 0.225 0.502 0.502 0.502s0.502-0.225 0.502-0.502c0-0.235 0.099-0.46 0.277-0.617 0.178-0.162 0.408-0.235 0.648-0.209 0.418 0.042 0.748 0.439 0.748 0.905v0.46c0 0.277 0.225 0.502 0.502 0.502s0.502-0.225 0.502-0.502c0-0.235 0.099-0.46 0.277-0.617 0.178-0.162 0.408-0.235 0.648-0.209 0.418 0.042 0.748 0.439 0.748 0.905l-0.021 3.922z"></path>
<path d="M13.108 5.532c-0.795-0.795-1.835-1.239-2.928-1.255-1.145-0.016-2.222 0.418-3.038 1.224s-1.265 1.877-1.265 3.022c0 0.277 0.225 0.502 0.502 0.502s0.502-0.225 0.502-0.502c0-0.873 0.345-1.694 0.967-2.306s1.448-0.946 2.322-0.931c1.71 0.026 3.169 1.485 3.195 3.195 0.021 1.658-1.197 3.059-2.839 3.263-0.512 0.063-0.899 0.502-0.899 1.025v0.57c0 0.277 0.225 0.502 0.502 0.502s0.502-0.225 0.502-0.502v-0.58c0-0.016 0.010-0.026 0.021-0.026 2.154-0.261 3.754-2.097 3.723-4.272-0.026-1.093-0.471-2.133-1.265-2.928z"></path>
<path d="M10.123 14.698c-0.424 0-0.769 0.345-0.769 0.769s0.345 0.769 0.769 0.769c0.424 0 0.769-0.345 0.769-0.769s-0.345-0.769-0.769-0.769z"></path>
</svg>
