<!-- Generated by IcoMoon.io -->
<svg version="1.1" xmlns="http://www.w3.org/2000/svg" width="24" height="32" viewBox="0 0 24 32">
<title>shield</title>
<path d="M3.127 10.374c-0.345 0-0.627 0.282-0.627 0.627s0.282 0.627 0.627 0.627c0.345 0 0.627-0.282 0.627-0.627-0.005-0.345-0.282-0.627-0.627-0.627z"></path>
<path d="M23.32 3.78l-11.268-3.749c-0.131-0.042-0.267-0.042-0.397 0l-11.226 3.749c-0.256 0.084-0.429 0.324-0.429 0.591v16.408c0 2.306 1.145 4.444 3.059 5.72l7.775 5.187c0.314 0.209 0.68 0.314 1.041 0.314s0.727-0.105 1.041-0.314l7.77-5.182c1.919-1.276 3.059-3.414 3.059-5.72v-16.408c0.005-0.272-0.167-0.507-0.424-0.596zM22.499 20.784c0 1.888-0.936 3.634-2.505 4.68 0 0 0 0 0 0l-7.77 5.182c-0.209 0.141-0.481 0.141-0.695 0l-7.775-5.182c-1.569-1.046-2.505-2.792-2.505-4.68v-15.958l10.604-3.54 10.646 3.54v15.958z"></path>
<path d="M20.837 5.793l-8.695-3.169c-0.052-0.026-0.105-0.042-0.162-0.052-0.115-0.021-0.23-0.016-0.34 0.026l-8.732 3.195c-0.246 0.089-0.408 0.324-0.408 0.586v2.102c0 0.345 0.282 0.627 0.627 0.627s0.627-0.282 0.627-0.627v-1.663l7.493-2.745v10.050h-7.498v-0.607c0-0.345-0.282-0.627-0.627-0.627s-0.627 0.282-0.627 0.627v7.263c0 1.464 0.727 2.829 1.95 3.639l7.074 4.716c0 0 0 0 0 0v0c0 0 0 0 0.005 0 0.021 0.010 0.037 0.026 0.058 0.037 0 0 0.005 0 0.005 0.005 0.005 0 0.005 0.005 0.010 0.005 0.016 0.005 0.026 0.010 0.042 0.021 0.010 0.005 0.016 0.005 0.026 0.010s0.026 0.005 0.037 0.010c0.010 0.005 0.021 0.005 0.031 0.005s0.021 0.005 0.026 0.005c0.037 0.005 0.068 0.010 0.105 0.010 0.010 0 0.021 0 0.031 0 0.016 0 0.026 0 0.042-0.005 0.016 0 0.026-0.005 0.042-0.005 0.010 0 0.026-0.005 0.037-0.010 0.021-0.005 0.042-0.010 0.063-0.021 0.010-0.005 0.026-0.010 0.037-0.016 0.016-0.005 0.026-0.010 0.042-0.021 0.010-0.005 0.016-0.010 0.026-0.016s0.021-0.010 0.031-0.021l7.085-4.706c1.218-0.816 1.945-2.175 1.945-3.639v-14.405c0.005-0.261-0.157-0.497-0.408-0.586zM11.247 27.456l-6.107-4.073c-0.873-0.58-1.391-1.553-1.391-2.599v-5.412h7.498v12.084zM20 20.779c0 1.046-0.518 2.018-1.391 2.599l-6.107 4.078v-12.084h7.498v5.407zM20 14.123h-7.498v-10.039l7.498 2.735v7.305z"></path>
</svg>
