<!-- Generated by IcoMoon.io -->
<svg version="1.1" xmlns="http://www.w3.org/2000/svg" width="32" height="32" viewBox="0 0 32 32">
<title>speech-bubble</title>
<path d="M25.074 32l-10.007-8.212h-11.755c-1.824 0-3.307-1.509-3.307-3.365v-17.058c0-1.856 1.483-3.365 3.307-3.365h25.376c1.824 0 3.306 1.509 3.306 3.365v17.058c0 1.856-1.483 3.365-3.306 3.365h-3.614v8.212zM3.312 1.999c-0.72 0-1.307 0.613-1.307 1.366v17.058c0 0.753 0.587 1.366 1.307 1.366h12.469l7.293 5.984v-5.984h5.613c0.72 0 1.307-0.613 1.307-1.366v-17.058c0-0.753-0.587-1.366-1.307-1.366h-25.376z"></path>
<path d="M4.951 5.846h22.098v1.999h-22.098v-1.999z"></path>
<path d="M4.951 10.747h18.099v1.999h-18.099v-1.999z"></path>
<path d="M4.951 15.648h14.101v1.999h-14.101v-1.999z"></path>
</svg>
