<!-- Generated by IcoMoon.io -->
<svg version="1.1" xmlns="http://www.w3.org/2000/svg" width="32" height="32" viewBox="0 0 32 32">
<title>tag</title>
<path d="M21.71 12.946l-1.6-1.6c-0.209-0.209-0.544-0.209-0.753 0l-5.49 5.49-1.757-1.757c-0.209-0.209-0.544-0.209-0.753 0l-1.6 1.6c-0.209 0.209-0.209 0.544 0 0.753l3.733 3.733c0.105 0.105 0.241 0.157 0.376 0.157s0.272-0.052 0.376-0.157l7.467-7.467c0.209-0.209 0.209-0.544 0-0.753zM13.867 20.037l-2.98-2.98 0.847-0.847 1.757 1.757c0.209 0.209 0.544 0.209 0.753 0l5.49-5.49 0.847 0.847-6.714 6.714z"></path>
<path d="M31.875 18.85l-2.379-2.86 2.384-2.86c0.131-0.157 0.162-0.382 0.073-0.57s-0.277-0.309-0.481-0.309h-7.007l-0.465-3.273c-0.037-0.261-0.261-0.46-0.528-0.46h-4.073c-0.627-0.523-3.054-2.541-3.054-2.541-0.199-0.167-0.486-0.167-0.685 0l-3.054 2.541h-4.073c-0.267 0-0.492 0.193-0.528 0.46l-0.465 3.273h-7.007c-0.209 0-0.397 0.12-0.481 0.309-0.089 0.188-0.058 0.408 0.073 0.57l2.379 2.86-2.379 2.86c-0.131 0.157-0.162 0.382-0.073 0.57s0.277 0.308 0.481 0.308h7.007c0.141 0.993 0.471 3.273 0.471 3.273 0.037 0.261 0.261 0.46 0.528 0.46h4.073l3.054 2.541c0.099 0.084 0.22 0.125 0.34 0.125s0.241-0.042 0.34-0.125l3.054-2.541c0.831 0 4.073 0 4.073 0 0.267 0 0.491-0.193 0.528-0.46 0 0 0.324-2.28 0.471-3.273h7.001c0.209 0 0.397-0.12 0.481-0.308 0.084-0.193 0.058-0.413-0.078-0.57zM1.673 18.656l1.935-2.327c0.167-0.199 0.167-0.486 0-0.685l-1.935-2.322h5.187l-1.94 2.327c-0.167 0.199-0.167 0.486 0 0.685l1.94 2.327-5.187-0.005zM23.592 18.85c-0.026 0.031-0.047 0.068-0.068 0.105-0.037 0.073-0.037 0.078-0.518 3.441-3.932 0-3.932 0-4.042 0.058-0.037 0.021-0.073 0.042-0.105 0.068l-2.86 2.374-2.86-2.384c-0.094-0.078-0.214-0.125-0.34-0.125h-3.807c-0.481-3.362-0.481-3.362-0.518-3.441-0.021-0.037-0.042-0.073-0.068-0.105l-2.379-2.85 2.384-2.86c0.063-0.078 0.105-0.167 0.12-0.267l0.465-3.273h3.807c0.126 0 0.246-0.042 0.34-0.126l2.86-2.384c2.907 2.421 2.907 2.421 2.959 2.447 0.073 0.037 0.157 0.058 0.241 0.058h3.801l0.465 3.273c0.016 0.099 0.058 0.188 0.12 0.267l2.384 2.86-2.384 2.865zM25.14 18.656l1.94-2.327c0.167-0.199 0.167-0.486 0-0.685l-1.94-2.322h5.187l-1.935 2.327c-0.167 0.199-0.167 0.486 0 0.685l1.935 2.322h-5.187z"></path>
</svg>
