<!-- Generated by IcoMoon.io -->
<svg version="1.1" xmlns="http://www.w3.org/2000/svg" width="32" height="32" viewBox="0 0 32 32">
<title>technology</title>
<path d="M18.165 24.523v-1.286h1.433c-0.575-0.308-1.103-0.701-1.579-1.171-0.329-0.329-0.617-0.685-0.868-1.067h-14.907v-13.762h22.489v3.744c0.816 0.256 1.574 0.664 2.243 1.213v-6.813c0-0.214-0.173-0.387-0.387-0.387h-26.201c-0.214 0-0.387 0.173-0.387 0.387v17.469c0 0.214 0.173 0.387 0.387 0.387h8.424v1.286l-1.663 1.846c-0.105 0.115-0.125 0.277-0.068 0.418 0.063 0.141 0.199 0.23 0.356 0.23h12.11c0 0 0 0 0 0 0.214 0 0.387-0.173 0.387-0.387 0-0.11-0.047-0.209-0.12-0.282l-1.647-1.825z"></path>
<path d="M31.723 25.009l-4.554-4.554c0.638-0.905 0.983-1.982 0.983-3.111 0-1.448-0.565-2.808-1.59-3.833s-2.384-1.59-3.833-1.59c-1.448 0-2.808 0.565-3.833 1.59-1.014 1.030-1.579 2.39-1.579 3.838s0.565 2.808 1.584 3.833c1.025 1.025 2.384 1.59 3.833 1.59 1.129 0 2.207-0.345 3.106-0.983l4.554 4.554c0.183 0.183 0.424 0.277 0.664 0.277s0.481-0.094 0.664-0.277c0.371-0.371 0.371-0.967 0-1.333zM25.459 20.073c-0.727 0.727-1.694 1.129-2.724 1.129s-1.997-0.403-2.724-1.129c-0.727-0.727-1.129-1.694-1.129-2.724s0.403-1.997 1.129-2.724c0.727-0.727 1.694-1.129 2.724-1.129s1.997 0.403 2.724 1.129c0.727 0.727 1.129 1.694 1.129 2.724s-0.403 1.997-1.129 2.724z"></path>
<path d="M14.029 15.336v2.034c0 0.34 0.277 0.617 0.617 0.617s0.617-0.277 0.617-0.617v-2.034c0-0.34-0.277-0.617-0.617-0.617s-0.617 0.277-0.617 0.617z"></path>
<path d="M11.707 12.784v4.586c0 0.34 0.277 0.617 0.617 0.617s0.617-0.277 0.617-0.617v-4.586c0-0.34-0.277-0.617-0.617-0.617s-0.617 0.277-0.617 0.617z"></path>
<path d="M9.391 15.336v2.034c0 0.34 0.277 0.617 0.617 0.617s0.617-0.277 0.617-0.617v-2.034c0-0.34-0.277-0.617-0.617-0.617s-0.617 0.277-0.617 0.617z"></path>
<path d="M7.069 12.784v4.586c0 0.34 0.277 0.617 0.617 0.617s0.617-0.277 0.617-0.617v-4.586c0-0.34-0.277-0.617-0.617-0.617s-0.617 0.277-0.617 0.617z"></path>
<path d="M4.753 11.163v6.207c0 0.34 0.277 0.617 0.617 0.617s0.617-0.277 0.617-0.617v-6.207c0-0.34-0.277-0.617-0.617-0.617s-0.617 0.272-0.617 0.617z"></path>
</svg>
