<!-- Generated by IcoMoon.io -->
<svg version="1.1" xmlns="http://www.w3.org/2000/svg" width="32" height="32" viewBox="0 0 32 32">
<title>telegram-logo</title>
<path d="M25.762 30.322c-0.251 0-0.497-0.073-0.711-0.22l-8.047-5.454-4.314 3.106c-0.34 0.246-0.774 0.303-1.166 0.162s-0.69-0.465-0.795-0.868l-2.165-8.209-7.749-2.965c-0.486-0.188-0.81-0.654-0.816-1.176s0.314-0.993 0.8-1.187l29.438-11.712c0.136-0.058 0.277-0.089 0.418-0.099 0.052-0.005 0.105-0.005 0.152 0 0.293 0.016 0.586 0.136 0.81 0.361 0.021 0.021 0.047 0.047 0.068 0.073 0.188 0.214 0.293 0.476 0.308 0.742 0.005 0.068 0.005 0.136 0 0.204-0.005 0.047-0.010 0.094-0.021 0.146l-4.967 26.071c-0.078 0.418-0.366 0.769-0.758 0.931-0.157 0.063-0.324 0.094-0.486 0.094zM17.71 22.065l7.169 4.863 3.864-20.288-13.966 13.438 2.897 1.966c0.016 0.005 0.026 0.010 0.037 0.021zM11.744 20.983l0.962 3.634 2.065-1.49-2.709-1.835c-0.126-0.084-0.235-0.188-0.319-0.308zM4.753 14.667l5.318 2.034c0.382 0.146 0.669 0.465 0.774 0.858l0.675 2.557c0.031-0.293 0.162-0.57 0.382-0.779l13.302-12.805-20.45 8.136z"></path>
</svg>
