<!-- Generated by IcoMoon.io -->
<svg version="1.1" xmlns="http://www.w3.org/2000/svg" width="32" height="32" viewBox="0 0 32 32">
<title>telegram</title>
<path fill="#59aae7" d="M32 16c0 8.837-7.163 16-16 16s-16-7.163-16-16c0-8.837 7.163-16 16-16s16 7.163 16 16z"></path>
<path fill="#3d9ae3" d="M16 0c-0.706 0-1.401 0.047-2.086 0.136 7.848 1.020 13.914 7.733 13.914 15.864s-6.065 14.844-13.914 15.864c0.685 0.089 1.38 0.136 2.086 0.136 8.837 0 16-7.163 16-16s-7.163-16-16-16z"></path>
<path fill="#fcfcfc" d="M10.295 19.446l-5.161-2.578c-0.141-0.073-0.141-0.272 0-0.345l19.597-10.144c0.146-0.073 0.308 0.052 0.277 0.209l-3.378 16.878c-0.026 0.12-0.152 0.188-0.267 0.141l-4.58-1.966c-0.058-0.026-0.12-0.021-0.173 0.010l-5.929 3.294c-0.131 0.073-0.288-0.021-0.288-0.167v-5.156c0.005-0.078-0.037-0.146-0.099-0.178z"></path>
<path fill="#d8d7da" d="M12.518 21.187l-0.031-5.15c0-0.031 0.016-0.063 0.047-0.078l8.371-5.114c0.094-0.058 0.193 0.068 0.115 0.146l-6.374 6.41c-0.005 0.005-0.010 0.016-0.016 0.026l-1.088 2.175-0.847 1.626c-0.042 0.089-0.178 0.052-0.178-0.042z"></path>
</svg>
