<!-- Generated by IcoMoon.io -->
<svg version="1.1" xmlns="http://www.w3.org/2000/svg" width="32" height="32" viewBox="0 0 32 32">
<title>transport</title>
<path d="M4.34 23.195c-0.298-0.298-0.784-0.298-1.088 0l-1.579 1.579c-0.298 0.298-0.298 0.784 0 1.088 0.152 0.152 0.345 0.225 0.544 0.225s0.392-0.073 0.544-0.225l1.579-1.579c0.303-0.303 0.303-0.79 0-1.088z"></path>
<path d="M6.573 25.427c-0.298-0.298-0.784-0.298-1.088 0l-5.26 5.26c-0.298 0.298-0.298 0.784 0 1.088 0.152 0.152 0.345 0.225 0.544 0.225s0.392-0.073 0.544-0.225l5.26-5.26c0.303-0.303 0.303-0.79 0-1.088z"></path>
<path d="M8.805 27.66c-0.298-0.298-0.784-0.298-1.088 0l-2.63 2.63c-0.298 0.298-0.298 0.784 0 1.088 0.152 0.152 0.345 0.225 0.544 0.225s0.392-0.073 0.544-0.225l2.63-2.63c0.303-0.303 0.303-0.79 0-1.088z"></path>
<path d="M23.299 8.701c-0.894-0.894-2.086-1.386-3.352-1.386s-2.458 0.492-3.352 1.386c-0.894 0.894-1.386 2.086-1.386 3.352s0.492 2.458 1.386 3.352c0.894 0.894 2.086 1.386 3.352 1.386s2.458-0.491 3.352-1.386c1.846-1.851 1.846-4.858 0-6.703zM22.212 14.316c-0.607 0.607-1.407 0.936-2.264 0.936s-1.658-0.335-2.264-0.936c-0.607-0.607-0.936-1.407-0.936-2.264s0.335-1.658 0.936-2.264c0.607-0.607 1.407-0.936 2.264-0.936s1.658 0.335 2.264 0.936c1.25 1.25 1.25 3.278 0 4.528z"></path>
<path d="M31.467 1.082c-0.073-0.267-0.277-0.471-0.544-0.544-2.63-0.701-5.412-0.716-8.047-0.031-0.413 0.105-0.816 0.23-1.213 0.371-0.037 0.010-0.068 0.021-0.099 0.037-2.196 0.779-4.204 2.039-5.867 3.697 0 0 0 0-0.005 0.005s-0.010 0.010-0.010 0.010-0.016 0.016-0.021 0.021c-0.005 0.005-0.016 0.016-0.021 0.021l-2.353 2.74c-3.702-0.042-7.299 1.422-9.924 4.047-0.852 0.852-1.59 1.809-2.186 2.844-0.12 0.209-0.136 0.46-0.042 0.685 0.094 0.22 0.288 0.387 0.518 0.444l4.272 1.088-0.837 2.269c-0.413 1.119-0.136 2.39 0.711 3.237l4.193 4.193c0.586 0.586 1.375 0.899 2.18 0.899 0.356 0 0.711-0.063 1.056-0.188l2.269-0.837 1.088 4.272c0.058 0.235 0.225 0.424 0.444 0.518 0.094 0.042 0.199 0.058 0.298 0.058 0.136 0 0.267-0.037 0.387-0.105 1.030-0.596 1.987-1.333 2.844-2.186 2.625-2.625 4.089-6.222 4.047-9.924l2.74-2.353c0.005-0.005 0.016-0.010 0.021-0.021 0.005-0.005 0.016-0.010 0.021-0.021 0.005-0.005 0.010-0.010 0.010-0.016 0 0 0 0 0.005-0.005 1.658-1.663 2.918-3.671 3.697-5.867 0.016-0.031 0.026-0.068 0.037-0.105 0.141-0.397 0.261-0.805 0.371-1.213 0.669-2.635 0.659-5.417-0.042-8.042zM3.054 14.196c0.413-0.591 0.878-1.145 1.391-1.658 2.008-2.008 4.664-3.252 7.467-3.535l-5.25 6.107-3.608-0.915zM6.526 19.31l0.716-1.945 0.993 0.993-1.506 2.4c-0.303-0.413-0.387-0.957-0.204-1.448zM7.838 21.888l1.506-2.41 1.046 1.046-1.956 1.961-0.596-0.596zM9.516 23.566l1.961-1.961 1.046 1.046-2.41 1.506-0.596-0.591zM12.69 25.474c-0.492 0.178-1.035 0.094-1.448-0.209l2.4-1.501 0.993 0.993-1.945 0.716zM19.461 27.556c-0.512 0.512-1.067 0.978-1.658 1.391l-0.92-3.608 6.112-5.25c-0.282 2.803-1.522 5.459-3.535 7.467zM26.306 15.221l-10.243 8.8-8.084-8.084 6.217-7.237c0.005-0.005 0.010-0.016 0.016-0.021l2.567-2.986c1.396-1.396 3.064-2.478 4.889-3.184l7.827 7.827c-0.711 1.814-1.793 3.482-3.19 4.884zM30.024 8.685l-6.709-6.708c2.217-0.565 4.549-0.586 6.776-0.068 0.518 2.227 0.497 4.559-0.068 6.776z"></path>
</svg>
