<!-- Generated by IcoMoon.io -->
<svg version="1.1" xmlns="http://www.w3.org/2000/svg" width="32" height="32" viewBox="0 0 32 32">
<title>twitter</title>
<path fill="#4da6ff" d="M26.437 32h-20.873c-3.069 0-5.563-2.494-5.563-5.563v-20.873c0-3.069 2.494-5.563 5.563-5.563h20.868c3.075 0 5.569 2.494 5.569 5.563v20.868c0 3.075-2.494 5.569-5.563 5.569z"></path>
<path fill="#4596e6" d="M26.437 32c3.069 0 5.563-2.494 5.563-5.563v-20.873c0-3.069-2.494-5.563-5.563-5.563h-10.437v32h10.437z"></path>
<path fill="#e6eeff" d="M21.218 27.477h-6.264c-4.026 0-7.305-3.278-7.305-7.305v-12.523c0-1.726 1.407-3.132 3.132-3.132s3.132 1.407 3.132 3.132v3.132h7.305c1.726 0 3.132 1.407 3.132 3.132s-1.407 3.132-3.132 3.132h-7.305v3.132c0 0.575 0.471 1.046 1.046 1.046h6.259c1.726 0 3.132 1.407 3.132 3.132 0 1.72-1.407 3.122-3.132 3.122z"></path>
<path fill="#dae2f2" d="M24.35 24.35c0-1.726-1.407-3.132-3.132-3.132h-5.218v6.259h5.218c1.726 0 3.132-1.401 3.132-3.127z"></path>
<path fill="#dae2f2" d="M21.218 10.782h-5.218v6.264h5.218c1.726 0 3.132-1.407 3.132-3.132s-1.407-3.132-3.132-3.132z"></path>
</svg>
