<!-- Generated by IcoMoon.io -->
<svg version="1.1" xmlns="http://www.w3.org/2000/svg" width="32" height="32" viewBox="0 0 32 32">
<title>twitter-logo-silhouette</title>
<path d="M32 6.086c-1.176 0.523-2.442 0.878-3.77 1.035 1.354-0.81 2.395-2.102 2.886-3.629-1.271 0.753-2.677 1.297-4.173 1.595-1.197-1.276-2.902-2.076-4.79-2.076-3.624 0-6.567 2.939-6.567 6.562 0 0.512 0.058 1.014 0.173 1.495-5.454-0.272-10.29-2.886-13.532-6.86-0.565 0.967-0.889 2.097-0.889 3.299 0 2.28 1.161 4.288 2.918 5.464-1.077-0.037-2.086-0.329-2.975-0.826v0.084c0 3.179 2.264 5.835 5.265 6.437-0.549 0.146-1.129 0.23-1.731 0.23-0.424 0-0.831-0.042-1.234-0.12 0.837 2.609 3.258 4.507 6.133 4.559-2.243 1.762-5.077 2.808-8.152 2.808-0.528 0-1.051-0.031-1.563-0.089 2.907 1.867 6.353 2.954 10.060 2.954 12.073 0 18.677-10.003 18.677-18.677l-0.021-0.852c1.291-0.925 2.405-2.081 3.284-3.393z"></path>
</svg>
