<!-- Generated by IcoMoon.io -->
<svg version="1.1" xmlns="http://www.w3.org/2000/svg" width="32" height="32" viewBox="0 0 32 32">
<title>worlwide</title>
<path d="M27.299 4.69c-2.97-2.97-6.902-4.627-11.090-4.68-0.073-0.005-0.146-0.010-0.214-0.010-0.073 0-0.141 0.005-0.214 0.010-4.188 0.058-8.12 1.71-11.090 4.68-3.027 3.022-4.69 7.038-4.69 11.31s1.663 8.288 4.68 11.31c2.97 2.97 6.902 4.627 11.090 4.68 0.073 0.005 0.146 0.010 0.214 0.010 0.073 0 0.141-0.005 0.214-0.010 4.188-0.058 8.12-1.71 11.090-4.68 3.022-3.022 4.685-7.038 4.685-11.31 0.005-4.272-1.658-8.288-4.674-11.31zM6.029 6.039c1.699-1.699 3.754-2.907 5.997-3.566-0.507 0.58-0.999 1.25-1.454 1.992-0.586 0.946-1.088 1.971-1.511 3.059h-4.329c0.392-0.518 0.826-1.020 1.297-1.485zM3.519 9.427h4.899c-0.507 1.783-0.81 3.681-0.884 5.626h-5.605c0.136-1.992 0.675-3.901 1.59-5.626zM3.519 22.573c-0.915-1.726-1.454-3.634-1.59-5.621h5.6c0.073 1.94 0.376 3.843 0.884 5.626h-4.894zM6.029 25.961c-0.471-0.471-0.899-0.967-1.297-1.49h4.329c0.424 1.082 0.931 2.112 1.511 3.059 0.46 0.742 0.952 1.412 1.454 1.992-2.243-0.648-4.303-1.861-5.997-3.561zM15.038 29.71c-0.79-0.518-1.856-1.558-2.85-3.174-0.397-0.648-0.758-1.339-1.077-2.060h3.927v5.234zM15.038 22.573h-4.638c-0.554-1.762-0.884-3.665-0.967-5.626h5.605v5.626zM15.038 15.048h-5.6c0.078-1.956 0.413-3.864 0.967-5.626h4.638v5.626h-0.005zM15.038 7.524h-3.927c0.319-0.722 0.675-1.412 1.077-2.060 0.993-1.616 2.060-2.656 2.85-3.174v5.234zM28.46 9.427c0.915 1.731 1.459 3.634 1.59 5.626h-5.605c-0.073-1.94-0.376-3.843-0.884-5.626h4.899zM25.95 6.039c0.471 0.471 0.899 0.967 1.297 1.49h-4.329c-0.424-1.082-0.931-2.112-1.511-3.059-0.46-0.742-0.952-1.412-1.454-1.992 2.243 0.648 4.303 1.861 5.997 3.561zM16.941 2.29c0.79 0.518 1.856 1.558 2.85 3.174 0.397 0.648 0.758 1.339 1.077 2.060h-3.927v-5.234zM16.941 9.427h4.638c0.554 1.762 0.884 3.665 0.967 5.626h-5.605v-5.626zM22.541 16.952c-0.078 1.956-0.413 3.864-0.967 5.626h-4.638v-5.626h5.605zM16.941 29.71v-5.234h3.927c-0.319 0.722-0.674 1.412-1.077 2.060-0.993 1.61-2.060 2.656-2.85 3.174zM25.95 25.961c-1.699 1.699-3.754 2.907-5.997 3.566 0.507-0.58 0.999-1.25 1.454-1.992 0.586-0.946 1.088-1.971 1.511-3.059h4.329c-0.392 0.523-0.826 1.020-1.297 1.485zM28.46 22.573h-4.899c0.507-1.783 0.81-3.681 0.884-5.626h5.6c-0.131 1.992-0.669 3.901-1.584 5.626z"></path>
</svg>
