<!-- Generated by IcoMoon.io -->
<svg version="1.1" xmlns="http://www.w3.org/2000/svg" width="32" height="32" viewBox="0 0 32 32">
<title>wrench</title>
<path d="M16.821 9.992c-0.282 0.282-0.282 0.742 0 1.025s0.742 0.282 1.025 0l0.596-0.596c0.214-0.214 0.272-0.544 0.146-0.816-0.397-0.858-0.601-1.746-0.601-2.635 0-1.814 0.79-3.524 2.123-4.706v4.737c0 0.235 0.115 0.46 0.314 0.596l3.435 2.379c0.246 0.173 0.575 0.173 0.826 0l3.435-2.379c0.193-0.136 0.314-0.356 0.314-0.596v-4.737c1.333 1.182 2.123 2.892 2.123 4.706 0 1.678-0.654 3.258-1.841 4.444s-2.761 1.841-4.439 1.841c0 0-0.005 0-0.005 0-0.575 0-1.71-0.282-2.097-0.387-0.251-0.068-0.523 0-0.706 0.183l-2.201 2.201c-0.282 0.282-0.282 0.742 0 1.025 0.141 0.141 0.324 0.214 0.512 0.214 0.183 0 0.371-0.073 0.512-0.214l1.909-1.909c0.533 0.131 1.448 0.335 2.071 0.335 0 0 0.005 0 0.005 0 2.065 0 4.005-0.805 5.464-2.264s2.264-3.404 2.264-5.469c0-2.782-1.511-5.365-3.942-6.735-0.225-0.126-0.497-0.126-0.722 0.005s-0.361 0.366-0.361 0.627v5.762l-2.714 1.877-2.709-1.877-0.005-5.762c0-0.256-0.136-0.497-0.361-0.627s-0.497-0.131-0.722-0.005c-2.431 1.37-3.937 3.953-3.937 6.74 0 0.941 0.178 1.872 0.533 2.776l-0.246 0.241z"></path>
<path d="M14.902 19.603l-10.044 10.044c-0.376 0.376-0.878 0.586-1.412 0.586 0 0 0 0 0 0-0.533 0-1.035-0.209-1.412-0.586s-0.586-0.878-0.586-1.417c0-0.533 0.209-1.035 0.586-1.412l8.638-8.638c0.282-0.282 0.282-0.742 0-1.025s-0.742-0.282-1.025 0l-8.638 8.643c-0.648 0.648-1.009 1.516-1.009 2.437s0.356 1.788 1.009 2.442c0.654 0.654 1.516 1.009 2.437 1.009 0 0 0 0 0 0 0.92 0 1.783-0.361 2.437-1.009l10.044-10.044c0.282-0.282 0.282-0.742 0-1.025-0.282-0.288-0.742-0.288-1.025-0.005z"></path>
<path d="M3.435 27.357c-0.241 0-0.46 0.094-0.627 0.261-0.35 0.345-0.35 0.91-0.005 1.26 0 0 0 0 0 0.005 0.173 0.173 0.403 0.261 0.627 0.261 0.23 0 0.455-0.089 0.633-0.261 0.345-0.35 0.345-0.915 0-1.26-0.167-0.173-0.392-0.267-0.627-0.267 0 0 0 0 0 0z"></path>
<path d="M27.106 23.686c-0.073-0.073-0.167-0.131-0.267-0.167l-2.076-0.753-7.498-7.503 1.213-1.213c0.282-0.282 0.282-0.742 0-1.025-0.214-0.214-0.528-0.267-0.795-0.157l-11.346-11.336c-0.685-0.69-1.6-1.067-2.573-1.072 0 0-0.005 0-0.005 0-0.973 0-1.888 0.376-2.578 1.067-0.685 0.69-1.061 1.605-1.061 2.578s0.382 1.888 1.067 2.578l11.341 11.341c-0.11 0.261-0.058 0.58 0.157 0.795 0.282 0.282 0.742 0.282 1.025 0l1.213-1.213 7.498 7.498 0.753 2.076c0.037 0.099 0.094 0.188 0.167 0.267l4.209 4.209c0.141 0.141 0.324 0.214 0.512 0.214s0.371-0.073 0.512-0.214l2.74-2.74c0.136-0.136 0.214-0.319 0.214-0.512s-0.078-0.376-0.214-0.512l-4.209-4.204zM15.728 14.75c0 0.005-0.005 0.005 0 0l-2.212 2.212-11.305-11.305c-0.413-0.413-0.643-0.967-0.643-1.553s0.23-1.14 0.643-1.553c0.413-0.413 0.967-0.643 1.553-0.643 0 0 0 0 0 0 0.586 0 1.135 0.23 1.548 0.643l11.305 11.305-0.889 0.894c0.005 0 0 0 0 0zM28.063 30.118l-3.582-3.582-0.753-2.076c-0.037-0.099-0.094-0.188-0.167-0.267l-7.613-7.613 0.293-0.293 7.613 7.613c0.073 0.073 0.167 0.131 0.267 0.167l2.076 0.753 3.582 3.582-1.715 1.715z"></path>
<path d="M4.272 3.587c-0.282-0.282-0.742-0.282-1.025 0s-0.282 0.742 0 1.025l9.987 9.987c0.141 0.141 0.324 0.214 0.512 0.214 0.183 0 0.371-0.073 0.512-0.214 0.282-0.282 0.282-0.742 0-1.025l-9.987-9.987z"></path>
</svg>
